<mxfile host="Electron" modified="2024-04-10T02:25:00.262Z" agent="Mozilla/5.0 (Windows NT 10.0; Win64; x64) AppleWebKit/537.36 (KHTML, like Gecko) draw.io/24.1.0 Chrome/120.0.6099.109 Electron/28.1.0 Safari/537.36" etag="mUELjbE0-MhYtNxFCDTp" version="24.1.0" type="device">
  <diagram name="Página-1" id="MPHX4-EzbN9Yq_lQ_DU8">
    <mxGraphModel dx="3663" dy="1736" grid="1" gridSize="16" guides="1" tooltips="1" connect="1" arrows="1" fold="1" page="1" pageScale="1" pageWidth="827" pageHeight="1169" math="0" shadow="0">
      <root>
        <mxCell id="0" />
        <mxCell id="1" parent="0" />
        <mxCell id="9b9OFLKVTD-ZKLy2y4Wj-44" value="" style="shape=table;startSize=0;container=1;collapsible=0;childLayout=tableLayout;strokeColor=default;fontSize=30;" vertex="1" parent="1">
          <mxGeometry x="-160" y="16" width="1712" height="1373" as="geometry" />
        </mxCell>
        <mxCell id="9b9OFLKVTD-ZKLy2y4Wj-45" value="" style="shape=tableRow;horizontal=0;startSize=0;swimlaneHead=0;swimlaneBody=0;strokeColor=inherit;top=0;left=0;bottom=0;right=0;collapsible=0;dropTarget=0;fillColor=none;points=[[0,0.5],[1,0.5]];portConstraint=eastwest;fontSize=30;" vertex="1" parent="9b9OFLKVTD-ZKLy2y4Wj-44">
          <mxGeometry width="1712" height="384" as="geometry" />
        </mxCell>
        <mxCell id="9b9OFLKVTD-ZKLy2y4Wj-46" value="Capa de aplicacion" style="shape=partialRectangle;html=1;whiteSpace=wrap;connectable=0;strokeColor=inherit;overflow=hidden;fillColor=none;top=0;left=0;bottom=0;right=0;pointerEvents=1;fontSize=30;" vertex="1" parent="9b9OFLKVTD-ZKLy2y4Wj-45">
          <mxGeometry width="251" height="384" as="geometry">
            <mxRectangle width="251" height="384" as="alternateBounds" />
          </mxGeometry>
        </mxCell>
        <mxCell id="9b9OFLKVTD-ZKLy2y4Wj-47" value="" style="shape=partialRectangle;html=1;whiteSpace=wrap;connectable=0;strokeColor=inherit;overflow=hidden;fillColor=none;top=0;left=0;bottom=0;right=0;pointerEvents=1;fontSize=30;" vertex="1" parent="9b9OFLKVTD-ZKLy2y4Wj-45">
          <mxGeometry x="251" width="1461" height="384" as="geometry">
            <mxRectangle width="1461" height="384" as="alternateBounds" />
          </mxGeometry>
        </mxCell>
        <mxCell id="9b9OFLKVTD-ZKLy2y4Wj-48" value="" style="shape=tableRow;horizontal=0;startSize=0;swimlaneHead=0;swimlaneBody=0;strokeColor=inherit;top=0;left=0;bottom=0;right=0;collapsible=0;dropTarget=0;fillColor=none;points=[[0,0.5],[1,0.5]];portConstraint=eastwest;fontSize=30;" vertex="1" parent="9b9OFLKVTD-ZKLy2y4Wj-44">
          <mxGeometry y="384" width="1712" height="640" as="geometry" />
        </mxCell>
        <mxCell id="9b9OFLKVTD-ZKLy2y4Wj-49" value="Capa de transporte" style="shape=partialRectangle;html=1;whiteSpace=wrap;connectable=0;strokeColor=inherit;overflow=hidden;fillColor=none;top=0;left=0;bottom=0;right=0;pointerEvents=1;fontSize=30;" vertex="1" parent="9b9OFLKVTD-ZKLy2y4Wj-48">
          <mxGeometry width="251" height="640" as="geometry">
            <mxRectangle width="251" height="640" as="alternateBounds" />
          </mxGeometry>
        </mxCell>
        <mxCell id="9b9OFLKVTD-ZKLy2y4Wj-50" value="" style="shape=partialRectangle;html=1;whiteSpace=wrap;connectable=0;strokeColor=inherit;overflow=hidden;fillColor=none;top=0;left=0;bottom=0;right=0;pointerEvents=1;fontSize=30;" vertex="1" parent="9b9OFLKVTD-ZKLy2y4Wj-48">
          <mxGeometry x="251" width="1461" height="640" as="geometry">
            <mxRectangle width="1461" height="640" as="alternateBounds" />
          </mxGeometry>
        </mxCell>
        <mxCell id="9b9OFLKVTD-ZKLy2y4Wj-51" value="" style="shape=tableRow;horizontal=0;startSize=0;swimlaneHead=0;swimlaneBody=0;strokeColor=inherit;top=0;left=0;bottom=0;right=0;collapsible=0;dropTarget=0;fillColor=none;points=[[0,0.5],[1,0.5]];portConstraint=eastwest;fontSize=30;" vertex="1" parent="9b9OFLKVTD-ZKLy2y4Wj-44">
          <mxGeometry y="1024" width="1712" height="349" as="geometry" />
        </mxCell>
        <mxCell id="9b9OFLKVTD-ZKLy2y4Wj-52" value="Capa de red" style="shape=partialRectangle;html=1;whiteSpace=wrap;connectable=0;strokeColor=inherit;overflow=hidden;fillColor=none;top=0;left=0;bottom=0;right=0;pointerEvents=1;fontSize=30;" vertex="1" parent="9b9OFLKVTD-ZKLy2y4Wj-51">
          <mxGeometry width="251" height="349" as="geometry">
            <mxRectangle width="251" height="349" as="alternateBounds" />
          </mxGeometry>
        </mxCell>
        <mxCell id="9b9OFLKVTD-ZKLy2y4Wj-53" value="" style="shape=partialRectangle;html=1;whiteSpace=wrap;connectable=0;strokeColor=inherit;overflow=hidden;fillColor=none;top=0;left=0;bottom=0;right=0;pointerEvents=1;fontSize=30;" vertex="1" parent="9b9OFLKVTD-ZKLy2y4Wj-51">
          <mxGeometry x="251" width="1461" height="349" as="geometry">
            <mxRectangle width="1461" height="349" as="alternateBounds" />
          </mxGeometry>
        </mxCell>
        <mxCell id="9b9OFLKVTD-ZKLy2y4Wj-6" value="" style="shape=image;verticalLabelPosition=bottom;labelBackgroundColor=default;verticalAlign=top;aspect=fixed;imageAspect=0;image=https://cdn-icons-png.flaticon.com/512/2111/2111728.png;fontSize=30;" vertex="1" parent="1">
          <mxGeometry x="628.93" y="151" width="130" height="130" as="geometry" />
        </mxCell>
        <mxCell id="9b9OFLKVTD-ZKLy2y4Wj-7" value="" style="shape=image;verticalLabelPosition=bottom;labelBackgroundColor=default;verticalAlign=top;aspect=fixed;imageAspect=0;image=https://cdn-icons-png.freepik.com/512/114/114747.png;fontSize=30;" vertex="1" parent="1">
          <mxGeometry x="-613.09" y="32" width="202" height="202" as="geometry" />
        </mxCell>
        <mxCell id="9b9OFLKVTD-ZKLy2y4Wj-4" value="" style="shape=image;verticalLabelPosition=bottom;labelBackgroundColor=default;verticalAlign=top;aspect=fixed;imageAspect=0;image=https://cdn-icons-png.flaticon.com/512/718/718110.png;fontSize=30;" vertex="1" parent="1">
          <mxGeometry x="904" y="126" width="180" height="180" as="geometry" />
        </mxCell>
        <mxCell id="9b9OFLKVTD-ZKLy2y4Wj-22" value="" style="shape=image;verticalLabelPosition=bottom;labelBackgroundColor=default;verticalAlign=top;aspect=fixed;imageAspect=0;image=https://cdn.icon-icons.com/icons2/3053/PNG/512/netflix_macos_bigsur_icon_189917.png;fontSize=30;" vertex="1" parent="1">
          <mxGeometry x="1232" y="84" width="222" height="222" as="geometry" />
        </mxCell>
        <mxCell id="9b9OFLKVTD-ZKLy2y4Wj-65" value="&lt;font style=&quot;font-size: 30px;&quot;&gt;Proceso&lt;/font&gt;" style="whiteSpace=wrap;html=1;aspect=fixed;verticalAlign=top;fontSize=30;" vertex="1" parent="1">
          <mxGeometry x="232.78" y="103.75" width="232.25" height="232.25" as="geometry" />
        </mxCell>
        <mxCell id="9b9OFLKVTD-ZKLy2y4Wj-11" value="" style="shape=image;verticalLabelPosition=bottom;labelBackgroundColor=default;verticalAlign=top;aspect=fixed;imageAspect=0;image=https://cdn.pixabay.com/photo/2016/06/13/17/30/mail-1454734_640.png;fontSize=30;" vertex="1" parent="1">
          <mxGeometry x="285.90000000000003" y="162" width="126" height="126" as="geometry" />
        </mxCell>
        <mxCell id="9b9OFLKVTD-ZKLy2y4Wj-69" value="&lt;div style=&quot;font-size: 30px;&quot;&gt;&lt;span style=&quot;background-color: initial; font-size: 30px;&quot;&gt;Segmento UDP&lt;/span&gt;&lt;/div&gt;" style="rounded=1;whiteSpace=wrap;html=1;fillColor=#60a917;fontColor=#ffffff;strokeColor=#2D7600;fontSize=30;align=center;verticalAlign=top;" vertex="1" parent="1">
          <mxGeometry x="-784" y="260" width="592" height="420" as="geometry" />
        </mxCell>
        <mxCell id="9b9OFLKVTD-ZKLy2y4Wj-70" value="" style="shape=table;startSize=0;container=1;collapsible=0;childLayout=tableLayout;fontSize=30;" vertex="1" parent="1">
          <mxGeometry x="182.06" y="362" width="313.94" height="80" as="geometry" />
        </mxCell>
        <mxCell id="9b9OFLKVTD-ZKLy2y4Wj-71" value="" style="shape=tableRow;horizontal=0;startSize=0;swimlaneHead=0;swimlaneBody=0;strokeColor=inherit;top=0;left=0;bottom=0;right=0;collapsible=0;dropTarget=0;fillColor=none;points=[[0,0.5],[1,0.5]];portConstraint=eastwest;fontSize=30;" vertex="1" parent="9b9OFLKVTD-ZKLy2y4Wj-70">
          <mxGeometry width="313.94" height="40" as="geometry" />
        </mxCell>
        <mxCell id="9b9OFLKVTD-ZKLy2y4Wj-72" value="&lt;font style=&quot;font-size: 30px;&quot;&gt;Socket&lt;/font&gt;" style="shape=partialRectangle;html=1;whiteSpace=wrap;connectable=0;strokeColor=inherit;overflow=hidden;fillColor=none;top=0;left=0;bottom=0;right=0;pointerEvents=1;fontSize=30;" vertex="1" parent="9b9OFLKVTD-ZKLy2y4Wj-71">
          <mxGeometry width="314" height="40" as="geometry">
            <mxRectangle width="314" height="40" as="alternateBounds" />
          </mxGeometry>
        </mxCell>
        <mxCell id="9b9OFLKVTD-ZKLy2y4Wj-73" value="" style="shape=tableRow;horizontal=0;startSize=0;swimlaneHead=0;swimlaneBody=0;strokeColor=inherit;top=0;left=0;bottom=0;right=0;collapsible=0;dropTarget=0;fillColor=none;points=[[0,0.5],[1,0.5]];portConstraint=eastwest;fontSize=30;" vertex="1" parent="9b9OFLKVTD-ZKLy2y4Wj-70">
          <mxGeometry y="40" width="313.94" height="40" as="geometry" />
        </mxCell>
        <mxCell id="9b9OFLKVTD-ZKLy2y4Wj-74" value="&lt;font style=&quot;font-size: 30px;&quot;&gt;N° puerto de destino&lt;/font&gt;" style="shape=partialRectangle;html=1;whiteSpace=wrap;connectable=0;strokeColor=inherit;overflow=hidden;fillColor=none;top=0;left=0;bottom=0;right=0;pointerEvents=1;fontSize=30;" vertex="1" parent="9b9OFLKVTD-ZKLy2y4Wj-73">
          <mxGeometry width="314" height="40" as="geometry">
            <mxRectangle width="314" height="40" as="alternateBounds" />
          </mxGeometry>
        </mxCell>
        <mxCell id="9b9OFLKVTD-ZKLy2y4Wj-123" value="" style="shape=table;startSize=0;container=1;collapsible=0;childLayout=tableLayout;fontSize=30;" vertex="1" parent="1">
          <mxGeometry x="1216" y="362" width="272" height="80" as="geometry" />
        </mxCell>
        <mxCell id="9b9OFLKVTD-ZKLy2y4Wj-124" value="" style="shape=tableRow;horizontal=0;startSize=0;swimlaneHead=0;swimlaneBody=0;strokeColor=inherit;top=0;left=0;bottom=0;right=0;collapsible=0;dropTarget=0;fillColor=none;points=[[0,0.5],[1,0.5]];portConstraint=eastwest;fontSize=30;" vertex="1" parent="9b9OFLKVTD-ZKLy2y4Wj-123">
          <mxGeometry width="272" height="40" as="geometry" />
        </mxCell>
        <mxCell id="9b9OFLKVTD-ZKLy2y4Wj-125" value="&lt;font style=&quot;font-size: 30px;&quot;&gt;Socket&lt;/font&gt;" style="shape=partialRectangle;html=1;whiteSpace=wrap;connectable=0;strokeColor=inherit;overflow=hidden;fillColor=none;top=0;left=0;bottom=0;right=0;pointerEvents=1;fontSize=30;" vertex="1" parent="9b9OFLKVTD-ZKLy2y4Wj-124">
          <mxGeometry width="272" height="40" as="geometry">
            <mxRectangle width="272" height="40" as="alternateBounds" />
          </mxGeometry>
        </mxCell>
        <mxCell id="9b9OFLKVTD-ZKLy2y4Wj-126" value="" style="shape=tableRow;horizontal=0;startSize=0;swimlaneHead=0;swimlaneBody=0;strokeColor=inherit;top=0;left=0;bottom=0;right=0;collapsible=0;dropTarget=0;fillColor=none;points=[[0,0.5],[1,0.5]];portConstraint=eastwest;fontSize=30;" vertex="1" parent="9b9OFLKVTD-ZKLy2y4Wj-123">
          <mxGeometry y="40" width="272" height="40" as="geometry" />
        </mxCell>
        <mxCell id="9b9OFLKVTD-ZKLy2y4Wj-127" value="&lt;font style=&quot;font-size: 30px;&quot;&gt;N° puerto de destino&lt;/font&gt;" style="shape=partialRectangle;html=1;whiteSpace=wrap;connectable=0;strokeColor=inherit;overflow=hidden;fillColor=none;top=0;left=0;bottom=0;right=0;pointerEvents=1;fontSize=30;" vertex="1" parent="9b9OFLKVTD-ZKLy2y4Wj-126">
          <mxGeometry width="272" height="40" as="geometry">
            <mxRectangle width="272" height="40" as="alternateBounds" />
          </mxGeometry>
        </mxCell>
        <mxCell id="9b9OFLKVTD-ZKLy2y4Wj-146" value="" style="shape=table;startSize=0;container=1;collapsible=0;childLayout=tableLayout;fontSize=30;verticalAlign=middle;" vertex="1" parent="1">
          <mxGeometry x="864" y="362" width="288" height="80" as="geometry" />
        </mxCell>
        <mxCell id="9b9OFLKVTD-ZKLy2y4Wj-147" value="" style="shape=tableRow;horizontal=0;startSize=0;swimlaneHead=0;swimlaneBody=0;strokeColor=inherit;top=0;left=0;bottom=0;right=0;collapsible=0;dropTarget=0;fillColor=none;points=[[0,0.5],[1,0.5]];portConstraint=eastwest;fontSize=30;verticalAlign=middle;" vertex="1" parent="9b9OFLKVTD-ZKLy2y4Wj-146">
          <mxGeometry width="288" height="40" as="geometry" />
        </mxCell>
        <mxCell id="9b9OFLKVTD-ZKLy2y4Wj-148" value="&lt;font style=&quot;font-size: 30px;&quot;&gt;Socket&lt;/font&gt;" style="shape=partialRectangle;html=1;whiteSpace=wrap;connectable=0;strokeColor=inherit;overflow=hidden;fillColor=none;top=0;left=0;bottom=0;right=0;pointerEvents=1;fontSize=30;" vertex="1" parent="9b9OFLKVTD-ZKLy2y4Wj-147">
          <mxGeometry width="288" height="40" as="geometry">
            <mxRectangle width="288" height="40" as="alternateBounds" />
          </mxGeometry>
        </mxCell>
        <mxCell id="9b9OFLKVTD-ZKLy2y4Wj-149" value="" style="shape=tableRow;horizontal=0;startSize=0;swimlaneHead=0;swimlaneBody=0;strokeColor=inherit;top=0;left=0;bottom=0;right=0;collapsible=0;dropTarget=0;fillColor=none;points=[[0,0.5],[1,0.5]];portConstraint=eastwest;fontSize=30;verticalAlign=middle;" vertex="1" parent="9b9OFLKVTD-ZKLy2y4Wj-146">
          <mxGeometry y="40" width="288" height="40" as="geometry" />
        </mxCell>
        <mxCell id="9b9OFLKVTD-ZKLy2y4Wj-150" value="&lt;font style=&quot;font-size: 30px;&quot;&gt;N° puerto de destino&lt;/font&gt;" style="shape=partialRectangle;html=1;whiteSpace=wrap;connectable=0;strokeColor=inherit;overflow=hidden;fillColor=none;top=0;left=0;bottom=0;right=0;pointerEvents=1;fontSize=30;" vertex="1" parent="9b9OFLKVTD-ZKLy2y4Wj-149">
          <mxGeometry width="288" height="40" as="geometry">
            <mxRectangle width="288" height="40" as="alternateBounds" />
          </mxGeometry>
        </mxCell>
        <mxCell id="9b9OFLKVTD-ZKLy2y4Wj-151" value="" style="shape=table;startSize=0;container=1;collapsible=0;childLayout=tableLayout;fontSize=30;" vertex="1" parent="1">
          <mxGeometry x="544" y="362" width="288" height="80" as="geometry" />
        </mxCell>
        <mxCell id="9b9OFLKVTD-ZKLy2y4Wj-152" value="" style="shape=tableRow;horizontal=0;startSize=0;swimlaneHead=0;swimlaneBody=0;strokeColor=inherit;top=0;left=0;bottom=0;right=0;collapsible=0;dropTarget=0;fillColor=none;points=[[0,0.5],[1,0.5]];portConstraint=eastwest;fontSize=30;" vertex="1" parent="9b9OFLKVTD-ZKLy2y4Wj-151">
          <mxGeometry width="288" height="40" as="geometry" />
        </mxCell>
        <mxCell id="9b9OFLKVTD-ZKLy2y4Wj-153" value="&lt;font style=&quot;font-size: 30px;&quot;&gt;Socket&lt;/font&gt;" style="shape=partialRectangle;html=1;whiteSpace=wrap;connectable=0;strokeColor=inherit;overflow=hidden;fillColor=none;top=0;left=0;bottom=0;right=0;pointerEvents=1;fontSize=30;" vertex="1" parent="9b9OFLKVTD-ZKLy2y4Wj-152">
          <mxGeometry width="288" height="40" as="geometry">
            <mxRectangle width="288" height="40" as="alternateBounds" />
          </mxGeometry>
        </mxCell>
        <mxCell id="9b9OFLKVTD-ZKLy2y4Wj-154" value="" style="shape=tableRow;horizontal=0;startSize=0;swimlaneHead=0;swimlaneBody=0;strokeColor=inherit;top=0;left=0;bottom=0;right=0;collapsible=0;dropTarget=0;fillColor=none;points=[[0,0.5],[1,0.5]];portConstraint=eastwest;fontSize=30;" vertex="1" parent="9b9OFLKVTD-ZKLy2y4Wj-151">
          <mxGeometry y="40" width="288" height="40" as="geometry" />
        </mxCell>
        <mxCell id="9b9OFLKVTD-ZKLy2y4Wj-155" value="&lt;font style=&quot;font-size: 30px;&quot;&gt;N° puerto de destino&lt;/font&gt;" style="shape=partialRectangle;html=1;whiteSpace=wrap;connectable=0;strokeColor=inherit;overflow=hidden;fillColor=none;top=0;left=0;bottom=0;right=0;pointerEvents=1;fontSize=30;" vertex="1" parent="9b9OFLKVTD-ZKLy2y4Wj-154">
          <mxGeometry width="288" height="40" as="geometry">
            <mxRectangle width="288" height="40" as="alternateBounds" />
          </mxGeometry>
        </mxCell>
        <mxCell id="9b9OFLKVTD-ZKLy2y4Wj-176" value="" style="endArrow=classic;html=1;rounded=0;entryX=0.505;entryY=1.129;entryDx=0;entryDy=0;entryPerimeter=0;fontSize=30;" edge="1" parent="1" target="9b9OFLKVTD-ZKLy2y4Wj-73">
          <mxGeometry width="50" height="50" relative="1" as="geometry">
            <mxPoint x="768" y="736" as="sourcePoint" />
            <mxPoint x="1106" y="592" as="targetPoint" />
          </mxGeometry>
        </mxCell>
        <mxCell id="9b9OFLKVTD-ZKLy2y4Wj-177" value="" style="endArrow=classic;html=1;rounded=0;entryX=0.543;entryY=0.986;entryDx=0;entryDy=0;entryPerimeter=0;fontSize=30;" edge="1" parent="1" target="9b9OFLKVTD-ZKLy2y4Wj-154">
          <mxGeometry width="50" height="50" relative="1" as="geometry">
            <mxPoint x="768" y="736" as="sourcePoint" />
            <mxPoint x="1106" y="592" as="targetPoint" />
          </mxGeometry>
        </mxCell>
        <mxCell id="9b9OFLKVTD-ZKLy2y4Wj-178" value="" style="endArrow=classic;html=1;rounded=0;fontSize=30;" edge="1" parent="1" target="9b9OFLKVTD-ZKLy2y4Wj-149">
          <mxGeometry width="50" height="50" relative="1" as="geometry">
            <mxPoint x="768" y="736" as="sourcePoint" />
            <mxPoint x="1106" y="592" as="targetPoint" />
          </mxGeometry>
        </mxCell>
        <mxCell id="9b9OFLKVTD-ZKLy2y4Wj-179" value="" style="endArrow=classic;html=1;rounded=0;entryX=0.55;entryY=0.986;entryDx=0;entryDy=0;entryPerimeter=0;fontSize=30;" edge="1" parent="1" target="9b9OFLKVTD-ZKLy2y4Wj-126">
          <mxGeometry width="50" height="50" relative="1" as="geometry">
            <mxPoint x="768" y="736" as="sourcePoint" />
            <mxPoint x="1106" y="592" as="targetPoint" />
          </mxGeometry>
        </mxCell>
        <mxCell id="9b9OFLKVTD-ZKLy2y4Wj-181" value="" style="rounded=1;whiteSpace=wrap;html=1;fillColor=#60a917;fontColor=#ffffff;strokeColor=#2D7600;fontSize=30;" vertex="1" parent="1">
          <mxGeometry x="704" y="816" width="152" height="76" as="geometry" />
        </mxCell>
        <mxCell id="9b9OFLKVTD-ZKLy2y4Wj-182" value="" style="rounded=1;whiteSpace=wrap;html=1;fillColor=#1ba1e2;fontColor=#ffffff;strokeColor=#006EAF;fontSize=30;" vertex="1" parent="1">
          <mxGeometry x="720" y="832" width="152" height="76" as="geometry" />
        </mxCell>
        <mxCell id="9b9OFLKVTD-ZKLy2y4Wj-183" value="" style="rounded=1;whiteSpace=wrap;html=1;fillColor=#d80073;fontColor=#ffffff;strokeColor=#A50040;fontSize=30;" vertex="1" parent="1">
          <mxGeometry x="736" y="848" width="152" height="76" as="geometry" />
        </mxCell>
        <mxCell id="9b9OFLKVTD-ZKLy2y4Wj-184" value="" style="rounded=1;whiteSpace=wrap;html=1;fillColor=#60a917;fontColor=#ffffff;strokeColor=#2D7600;fontSize=30;" vertex="1" parent="1">
          <mxGeometry x="752" y="864" width="152" height="76" as="geometry" />
        </mxCell>
        <mxCell id="9b9OFLKVTD-ZKLy2y4Wj-185" value="" style="rounded=1;whiteSpace=wrap;html=1;fillColor=#6a00ff;fontColor=#ffffff;strokeColor=#3700CC;fontSize=30;" vertex="1" parent="1">
          <mxGeometry x="768" y="880" width="152" height="76" as="geometry" />
        </mxCell>
        <mxCell id="9b9OFLKVTD-ZKLy2y4Wj-186" value="" style="rounded=1;whiteSpace=wrap;html=1;fillColor=#60a917;fontColor=#ffffff;strokeColor=#2D7600;fontSize=30;" vertex="1" parent="1">
          <mxGeometry x="784" y="896" width="152" height="76" as="geometry" />
        </mxCell>
        <mxCell id="9b9OFLKVTD-ZKLy2y4Wj-187" value="" style="rounded=1;whiteSpace=wrap;html=1;fillColor=#1ba1e2;fontColor=#ffffff;strokeColor=#006EAF;fontSize=30;" vertex="1" parent="1">
          <mxGeometry x="800" y="912" width="152" height="76" as="geometry" />
        </mxCell>
        <mxCell id="9b9OFLKVTD-ZKLy2y4Wj-188" value="" style="rounded=1;whiteSpace=wrap;html=1;fillColor=#6a00ff;fontColor=#ffffff;strokeColor=#3700CC;fontSize=30;" vertex="1" parent="1">
          <mxGeometry x="816" y="928" width="152" height="76" as="geometry" />
        </mxCell>
        <mxCell id="9b9OFLKVTD-ZKLy2y4Wj-191" value="" style="rounded=1;whiteSpace=wrap;html=1;fillColor=#60a917;fontColor=#ffffff;strokeColor=#2D7600;fontSize=30;" vertex="1" parent="1">
          <mxGeometry x="628.93" y="528" width="107.07" height="48" as="geometry" />
        </mxCell>
        <mxCell id="9b9OFLKVTD-ZKLy2y4Wj-194" value="" style="rounded=1;whiteSpace=wrap;html=1;fillColor=#60a917;fontColor=#ffffff;strokeColor=#2D7600;fontSize=30;" vertex="1" parent="1">
          <mxGeometry x="644.93" y="544" width="107.07" height="48" as="geometry" />
        </mxCell>
        <mxCell id="9b9OFLKVTD-ZKLy2y4Wj-195" value="" style="rounded=1;whiteSpace=wrap;html=1;fillColor=#60a917;fontColor=#ffffff;strokeColor=#2D7600;fontSize=30;" vertex="1" parent="1">
          <mxGeometry x="660.93" y="560" width="107.07" height="48" as="geometry" />
        </mxCell>
        <mxCell id="9b9OFLKVTD-ZKLy2y4Wj-197" value="" style="rounded=1;whiteSpace=wrap;html=1;fillColor=#6a00ff;fontColor=#ffffff;strokeColor=#3700CC;fontSize=30;" vertex="1" parent="1">
          <mxGeometry x="992" y="544" width="107.07" height="48" as="geometry" />
        </mxCell>
        <mxCell id="9b9OFLKVTD-ZKLy2y4Wj-198" value="" style="rounded=1;whiteSpace=wrap;html=1;fillColor=#6a00ff;fontColor=#ffffff;strokeColor=#3700CC;fontSize=30;" vertex="1" parent="1">
          <mxGeometry x="1008" y="560" width="107.07" height="48" as="geometry" />
        </mxCell>
        <mxCell id="9b9OFLKVTD-ZKLy2y4Wj-201" value="" style="rounded=1;whiteSpace=wrap;html=1;fillColor=#1ba1e2;fontColor=#ffffff;strokeColor=#006EAF;fontSize=30;" vertex="1" parent="1">
          <mxGeometry x="812.9300000000001" y="512" width="107.07" height="48" as="geometry" />
        </mxCell>
        <mxCell id="9b9OFLKVTD-ZKLy2y4Wj-202" value="" style="rounded=1;whiteSpace=wrap;html=1;fillColor=#1ba1e2;fontColor=#ffffff;strokeColor=#006EAF;fontSize=30;" vertex="1" parent="1">
          <mxGeometry x="828.9300000000001" y="528" width="107.07" height="48" as="geometry" />
        </mxCell>
        <mxCell id="9b9OFLKVTD-ZKLy2y4Wj-203" value="" style="rounded=1;whiteSpace=wrap;html=1;fillColor=#d80073;fontColor=#ffffff;strokeColor=#A50040;fontSize=30;" vertex="1" parent="1">
          <mxGeometry x="414.00000000000006" y="537" width="107.07" height="48" as="geometry" />
        </mxCell>
        <mxCell id="9b9OFLKVTD-ZKLy2y4Wj-206" value="" style="html=1;shadow=0;dashed=0;align=center;verticalAlign=middle;shape=mxgraph.arrows2.arrow;dy=0.68;dx=37.71;direction=north;notch=0;fillColor=#a20025;fontColor=#ffffff;strokeColor=#6F0000;fontSize=30;" vertex="1" parent="1">
          <mxGeometry x="849.93" y="1072" width="33.07" height="140" as="geometry" />
        </mxCell>
        <mxCell id="9b9OFLKVTD-ZKLy2y4Wj-210" value="" style="ellipse;whiteSpace=wrap;html=1;align=center;aspect=fixed;fillColor=none;strokeColor=none;resizable=0;perimeter=centerPerimeter;rotatable=0;allowArrows=0;points=[];outlineConnect=1;fontSize=30;" vertex="1" parent="1">
          <mxGeometry x="455.03" y="882" width="10" height="10" as="geometry" />
        </mxCell>
        <mxCell id="9b9OFLKVTD-ZKLy2y4Wj-214" value="&lt;font style=&quot;font-size: 30px;&quot;&gt;Datagrama&lt;/font&gt;" style="rounded=1;whiteSpace=wrap;html=1;fontSize=30;" vertex="1" parent="1">
          <mxGeometry x="735.9999999999999" y="1232" width="286.07" height="60" as="geometry" />
        </mxCell>
        <mxCell id="9b9OFLKVTD-ZKLy2y4Wj-215" value="" style="html=1;shadow=0;dashed=0;align=center;verticalAlign=middle;shape=mxgraph.arrows2.arrow;dy=0.68;dx=37.71;direction=north;notch=0;fillColor=#a20025;fontColor=#ffffff;strokeColor=#6F0000;fontSize=30;" vertex="1" parent="1">
          <mxGeometry x="643.8599999999999" y="864" width="33.07" height="140" as="geometry" />
        </mxCell>
        <mxCell id="9b9OFLKVTD-ZKLy2y4Wj-216" value="" style="shape=image;verticalLabelPosition=bottom;labelBackgroundColor=default;verticalAlign=top;aspect=fixed;imageAspect=0;image=data:image/png,iVBORw0KGgoAAAANSUhEUgAAASAAAAD9CAYAAAAcVKrFAAAgAElEQVR4Ae2d74scR5rn5z+phoKl243FiUUw+MXeQrtBEtgsA/NCu91gMSs8+2LMFhYc2F7P0LUWwxk0dunkM5izqtY+jsFSdy8LXqTWrO4wdmlnV0LqFoPQdLcY1Oqq7n0xCL1YhkE8R2TGk/lkVERmVlZWZWX2VyAquyozMvKJb3ziiR/5xPcI/2ABWAAWKMgC3yvovrgtLAALwAIEAEEEsAAsUJgFAKDCTI8bwwKwAAB0pDTwjB7dbNG5uRmq12aoPvfX9Iu1O9R7IYzwokd3/uFdOq1+9/5/n85dXKM7vT+Ik+ThH6m39hOq107RL+48lz+IY8s5zx/Rry7+D/qn3h/FeTg8ahYAgI5Mif+Bnq79Lb1ce53eW3tIz+kP1Lv193S69hKdvvhr8tHxe7pz8QcemFq/7tELekHPH63ReydfovrJFt15LknFhrPAhX9yfvI1P6F1AMhppaPwAwB0FEpZPeOLh9R+/SWqv36FHgUceULrPzpO9f9yke4oR+TZLXpvbob+9OIdCv2SF/Ts1vv0cu3P6L1b/2GxFsMkzgMyL+NrACDTMkftbwDoqJV45HkNAEV+C//4452L9Ke143Ru7Un4ZXDEMPk+nfvvfx92706+S1/cUV6U+sfnKEj16M7FU7p753fzPOBZu3436JHV6wpujoOSWwAAKnkBZs/+M3q09j6drn2f/mbtdxoUttT+kx5d+auYMR6GixpT+jG1Hz4jevGUbr3/OtVrP6Bf3Pm9ASDV2eNr2APie/D5L+j5wy88mL387i16ZssWvquEBQCgShTjcA/x4tEV+gs9yPzyj/4n/ZtzgJmInv+afqHGgCJdN3k/hokBMn2dDxA+h7tp/DcDSHtic+/TrWdB/1DeBMcVtQAAVNGCTfVY7KnM/S2tP7XNcvGgtOt3dReGyV9R+9F/itv+B91698/0+BKf4wIQD5DP0Ms/ukira/8PXS9hySofAkBVLt0Uz+Z7Qy/RX1x5aHTDntHDKz+ml4NulCsxhgt7M3zec3+sxxvg5nNcAFLXPKNHt9ao/a7quvljQwpG68E4EqeLzypZAACqUmlmeZbeGp2rGTNfL3r0bx//tTdl/9NbTw0wmTdhuJgAGsYDMtNUMLriT/+jW2Yap1J/A0CVKs6Yh9FT7Oagru8BifGb5w+o/aPvU732OiXDR92PAWRM00fux+fEeUBm3vkas2tnnoe/y2wBAKjMpTdU3nk8R89UqWufP6R11eXhRYYvfkfrP1bwEUBKvAeDYobqJ9+n9UdiFiwYW+JzTACpv5/SzsPbdE3dl6/38qZByHlLzAdOKKMFAKAyllrWPKu1NmsXw7U6NfWaRbjWxl/vw69gDH5GFyhyJhgur9N7F/9b+AqHhEngJTGAiF70vqOW52nNkPLKft+7Q+sXVbeP7/sSnX73f8e8AsL3x2eZLQAAlbn0kHdYoOQWAIBKXoDIPixQZgsAQGUuPeQdFii5BQCgkhcgsg8LlNkCAFCZSw95hwVKbgEAqOQFiOzDAmW2AABU5tKbgryr1ybwDxbIagEAKKvlcJ1nAQAIQhjFAgDQKNbDtd6LozADLJDVAgBQVsvhOs8C8IAghFEsAACNYj1cCw8IGhjJAgDQSObDxfCAoIFRLAAAjWI9XAsPCBoYyQIA0Ejmw8XwgKCBUSwAAI1iPVwLDwgaGMkCANBI5sPF8ICggVEsAACNYj1cCw8IGhjJAgDQSObDxfCAoIFRLJAKQEpk+A8bQAPQQFoNpIVSagClTRDnwQKwwNG2gIJU2n8AUFpL4TxYABZIZQEAKJWZcBIsAAuMwwIA0DisijRhAVgglQUAoFRmwkmwACwwDgsAQOOwKtKEBWCBVBYAgFKZCSfBArDAOCwAAI3DqkgTFoAFUlkAAEplJpwEC8AC47AAADQOqyJNWAAWSGUBACiVmXASLAALjMMCANA4rIo0YQFYIJUFAKBUZsJJsAAsMA4LAEDjsCrShAVggVQWyB1Aqe6Kk2ABWAAWGNICqd6GHzJNnA4LwAKwQCoLAECpzISTYAFYYBwWAIDGYVWkCQvAAqksAAClMhNOggVggXFYIBWA+geHhP+wgakBKUjzN/wNvUh9uI4BIMA1c+MiRQXgADimBqQ+XMcAEAAEAEEDmTVgQkf+7YKO/L5QAD3daNJxteXPyUvU7ZktyGPaWHmV6rVz1N7qUf9gh7qd87SotwiaX/qQrm/tpTfcVoeWazN0fOUmPS2t4Pq02/2Kmiu/pM0peAYpJCm80Y+57OfodKtL++az7t+k5rEZqi91fDvsdqndOKW3jjpByx98TZsDejL1xX/3aLNzjuq1V6m58Ti9nsw8Ff73dGlDaSDNv+kAUO0Ene3cNYTGIvQBtN+9RKf1eU+3rtH5hTmab6zTdtqCrwSA7lF76VhY8dI++5jOkwIbHToMBPXJZT9D9dk3qX3faGgiAHpC3dYP9XmPaXPtHVqsvUKNtYcpYVIVAE2XNkoGIJvQWIQKQE90K8Xe0ENabbxC9WNN2tiXwo05BoBSVsgYGxogmwiAajM0/0aH7kuPJgIgo+Jtr1NjdhhPFwDKt/EI9SP14TqeAg9ojhaXznhdq6jQRgGQdkeXTmi3/BQ1Vt7y7iG7YPtbN+hy4LrP0PzSBbra3XFXVA9ix+gvVz6hCzLtyzdCl98KOl1JJDB7D2jjciPoUtZnl6h59TbtepU8rBTLS6obatuRk7sM6lnXqRV5jia1Nx4YHmUojLwEJ0WVV5p+Olz2r5L//IaHPBKAdqh79QItz2qbLrxFTc92bE9lpz3a3PiUGgtzYbdu5Svq7vYd2uDyOkPNKzLtBl0OyoHPkfc5pL5FL/G61FpaOEPLnL//+iot/onUCN9jh7prl4zn6NDGMEMXRqMzTDlLfbiOpwBAx2i5839pY+U1qke6YizCwS7Y/u4NasZ0wfbvd+js7BwtNjqeaPZ1l01V5ABAnAaPJfU2afXtU3aXnwtBi0Xlc7n1De0qoXou/xwtrtzw4WERVP/ABNC2/7yzS3ThugIFp8MVjcWqoPgJfbv7hDb/5Rva7Bmt/cEh+c/K5/Wpz89Re42aG9uOCpMPjKSohhFm8rmi7Ltfe2Ud6YpFACS7YE9od+NCTBdsj+533qT52ilqdLqi/FTl5Urb12mEY0msn2gDKW0Ylld99iy1vtuxlAOfw/fR15t6SdSl1gBrsPeAfvUvSkOmNvhZWauHxM9RX7hAG06Yyuca7Vjqw3U8JQC6R31t+FBoQoRDDUKzIM/T6ja3WH3aXjtP8wGA9Dm1H1Kr+ySspNp9d44tabFEhcgw0fczBeXBKwogfzzLHGDV3cpZlc6e7nIqON8L8zcgMr7GGCdhW1oH90cTlYSHFJX8fvRjWfZ7GgiiKxYB0CH10w5C97rUOmmOHWobMoD0OdGJEdaPa2yJ4cINiLYxw8Qbq+Rz4gCURpcMIB6O4PI0AMRajnRfGa6m9jiNfD+lPlzH0wOgAzYOC02KUM2CpTWOURB8XQQMUSCEabu+1/f20jALj8WphRW5D+dZpusQ4oH8ftsxM2M8m7WyqHsymCSEOS/5fUpRhTbMI32z7DXk2UM2AcRlnPTplY0JdWn3x9Yukfds1nLlZ+U0jAaNy8HrevM5cQCSOuG01af8Xh5bztEzg/ZG7pD6DKZhJnCS7Or4XerDdTxFAFLGZKGp7sM9YxpeGjvm2CVO/b3XBeOKax1bmXEPblsFfEj+coK0AOJWTvbZ5bFKJyWAXM8azCKZrWSM3RwiigOLFFXcecP/ZgJIeTl+t9vrPvz2RnQaPmXe/XIyARQtP7/iyvKIHgdd+Mg9GS6mvfVzpAVQKl2mA5DrWftOzeSrDVXmaf5NGYCk0M5Ts/HnYh1QWgPpAjK7H5EWzHFORFSW+1kBlNUDMltLeT8WtNFackvI619YsOazcsvrdee4GyrTz+dYCmx4yMTlwQKgwEOeo8W/+xk15DqgpHLj373yMz1Yw9bWc+Lyqn7jNEwAaU80LYC4fAfKU94/HYDgAXGhx3zaKc0Vmlses1BlYdiORxgDclZofR8NsegYkdHd0edEWkrt9vKyAbs42DNSYHqcrgsWgKbKY0Cy+83jNVobDOIYjUXAqMvXWn6xY0CHZC8z1h8DyBgjinR3+BzZqIRa9/UiNSDGJiO6TAegoKuFMSAupMFPO4AOqd+7S+03eAp9WAANzgwFo//BILQ8R6+o7j2g6x8s0Xzc7JGGS31gFkUMPrJYgtkQTld07fj55CzY9Q9pWc3cebNpNrEq+wnx/fYudbf2qj8L5k1AhNrhWT9vacKwADowZ4Z49lEBjcEgztErqve3vvaXXThnj7i8Zqi+cJ7aaikHz0aKhZTcvfNnNvsUpDuULoUGImvgxPeeNh7rGT/MgjkHkJ0AEtPL4asYoQgjrZq19cu2Dqi+INdtWO7HHtDSW/QWr8GIrN/xr5HC8qbsV37ur8WIWwekoBasJ2JBc6XgvOzRpgcqVWG4ta3yOiBb48OAEK9iWDXANjM/s6wDUks6Po1ZP8PldYKWG28Ga7sG15XJ8lOLb5eo+ZG/Fkx6zOY6oKguBWgiAJJpszawDsgJn2SImMKZgr9t3auhxD8Fz5Bjfsc3BlQ2OzGAzAajbM+Rb36lPlzHhQ5Clw5CAFCkQZGiKl1Z5gjicBAaAJI6kPpwHQNAwwgRAAKArHqBByTBw8cu6MjvASCroPJ1RblAqvYphVS1Z8PzjF4HpD5cxwAQABTxaoapeFJUw1yHc0ev3GWwodSH6xgAAoAAIGggswbiQOiCjvweAIL4MotPCilOiPjtaHg8ZjlLfbiOSw4g15qISRQ4Bh6lqEzx4e9JaHC67yH14ToGgOABVcQDGmODMI7Zz93bdHXl5/QFr/Qexz0K1rYLOvJ7AKjgQiqzpyCFVPxzlAlAnFfbSu/p9mqGKWepD9dxuQDktRrqfS31KoJaHv93ya84WF6VGDRi0pJ13dWTYTBPXqTVz83dFMxl/g36aEXlVy5QSwr3qe91pkltGbKV3zGaImBKUQ3adNIViSu1tHVOecjdO+G8AkDlARC/wMkVkV/2UzAK3rHi6ISuUKc2QfK7RXEv7WkoRMJg3qN7ke1cOJ1Rw33yvSwhZcccXmNYiBQLIBP2ltjOsXG3bVpQ32V7j9B872vgfa6gIeRQI/qNfn4RNQI5BtQZanZkTGfWFuc9qeHk84r5lPpwHZcGQP6bxPySnTZoqjAXRrgM04PgkAmxYQsYCrLFYpHoFjdzqAcOycDPpu8VgQ2HaRhD627aY4i/paiGhddo56eBfZbGiKMkWODPoFD24VCrrnjiHBEheHt+h75tnaX54AVi1o7QkxVAlrfrgzTYBnENZzHg4bKV+nAdlwRAlgLzKoqurHEBn4JgUfbK64zzwmDyQlfK+3Chcp78dP10zGh7DBd974jIOB1zZ4Tke3EBF/0pRTXRvKSAvb1cExqjgxFiSUm96HKOxh0S5R1oMglA3Cj51/rPpDdW4PvFNpzynpM/lvpwHZcEQOy2igLzACRDXrKXELq20e1s7AByhgSJhK5MhoIrHf97CSlX/njHjuR7TbSyx3hEUlQTzZNXwU3YywbBFdJWnmPbBVXb3owzFGk4bOWjKrf4fo/jWZ2g5ZXPqL3G2y0xBDgfQs+Re/DvhmbFOU+8jTrN6I6TjfmcVOZSH67jkgCIC8QMYyoKfd91Dhe6/dPeUpoFKe/D6fD9JFxMQdg8IPMcTo8/k++VVPCT+l2KalL3VPdJhv1Df7dUV8zvyKQA2/2QnPGSs8QT371Nq52PHXtysXayA+h33rbmJoRjniGmIRlX2Ul9uI5LAiAOiRl1STnsJA9C22HCnpEJLy28VK5sCihYuwUcZF+3ZDw2YMT8jeY7xb0KEJNNpFJUtt/H9p3nCZgg50qtbM0ekKPMnfbTtjfKJ7p5oOMcZ5pqzOg2rbb8wGN+t4zzmh1A8IDiDD6O33gWLAh1qjcSlLNgwTliFiwS6lS0dkEe0wzmpYECp8MzFVnDfaa5l+05Jv9dYQCywp7jRcd5pAmN0ShjQI7GJYSwBNfoAHqaquGcvCbC5y3Brhgys6mOs6wDioQ6dRVI0nRmWiikmBoe2PbXDPeZ9l6uZ5nc94UBKE1s50yNEc+ChTvNZoknbu7M603tf/eJI+b3Jv1r9ze0L8Z3ngaD1Npz5sYycg43eJgFy7yUPxV02Pil/LS0dKV8DjvUigOQyk8K2JvrgFI1RtnWAUXjNqvFph1qLvHGCmriQcb8Vtsk60D3tRnyumURuLBu4gCkbVDg3u9J9Vfqw3VcmjGgpIct/Hd2ib293NVeXErIHW8QMrqVs70yF57/DGCUoipj/pHn8WpR6sN1DABlqHh24TpavdY6dXfHtzmgPS/jFRbfU4qKv8PnZGxfBjtLfbiOAaDcAHT0hCdFVYYKgTxOVqNSH65jAAgAyjyGJ0WFyj3Zyl0Ge0t9uI4BIAAIAIIGMmsgDoQu6MjvASCIL7P4pJDihIjfjqZ3JPXhOgaAACAACBrIrIG4xsUFHfl9KgDJC3AMC8ACsEBeFgCA8rIk0oEFYIGhLQAADW0yXAALwAJ5WSAVgOL6efjtaA4wqnKX/6CDo6sDV9lLfbiOASAMQGYegJSicokQ3x9dMEl9uI4BIAAIAIIGMmsgroFxQUd+DwBBfJnFJ4UUJ0T8djS9IKkP1zEABAABQNBAZg3ENS4u6MjvASCIL7P4pJDihIjf4AFJrchjAAgAqhCAbCFR1M4UHdrY2sv8nIUANBKgrJwAk6BxHQNAAFDmiilFVUgljZQdhyjlmNx+pQ0iD86+Se37JYIQABTKq3hxlbMFqLrdQoVQZojlZiMOCm/u6XXAO6qYu2hMuaYAoFBeuYkk0mJNuQCQ10SohAqZAgDxRpLmljq2crRWbrkZAMdkPkWNj35Gy7N6M8lZtdtKl769eiH8buE8tbs7wlbmBgdqe+UGXd54QPu2vHjfZYtDbe5HP231VOrDdYwumFMUAGSSoKWoks4d/++8B5va0aJJn39xkzZ7jjJMDSAFj3doVY0f6f3g1W6783pP+GDHjAB6YTfw/NqmB5ywC3ieVrftoXnNXTSCdIfZj34KdSz14ToGgKaw4MZfWR0Vc0hbSFFNRZ4j2zZpr2WhQa3OL6OD0KkBJDfC5D3F5HfGluHcDQyApOzM1xk7XAS21r/PSkDxjrq8XTenYWy0yBshNNZpO0gvn7LNozylPlzHANAUFlwehT+JNKSoJnG/1PdQ2/F80aG23o1UeS113tBSlXdqAElocLdM7GZ6YACIteRty9yhdqdDn68s0by3RbRMS0JCd/3MsatIHmX30HLtsSZt7Mvvp+NY6sN1DACxaPApxjHSCViKKjUcJm7nHep2ztMi77+l7h+p3PysspIzbCQ0+Ls4AIndcGeXqHlFQegarbbOUn0S+9FP3LZsO/un1IfrGACaskKb3oo8KDIpqqnON3eN2FMYF4C4S/RGh+4H40/cfZIwk7bU4It020xIOs6Zcu1KfbiOAaApL8RprthSVMXmk8dM5PjMYCX3diBV5W0DkIZH3YMUezsSGvxdjAfkpWtO90f3rB+00whjQAxWE15TommpD9dxKQH0dKNJx2vHaLlzb+huw6AApFCzHLMwWax6SnXll7Q5qhBsFWXUNHO8Xooqf7sOWRZiL/hmR8yA8fbMcgyIKy5/13tA1z/QYzWjAIhnyhYu0IbajJLv7Y0BueCYz370hdvfoiupD9cxAGQx3GiFqd1lc1Axy30AoOEaGG/w+WNvO2xv4Nmr+OpVjP9Fq5G1OtG92es1dc7P/etGAZDYjtu//xwtNi7R1c7P6HTN9IwkYLOtA0peXyTvMfljF3Tk9wBQFjDEXgMAjQbwyVcU5Hc8NpegcR1XGECqVVmnVuMUcWuoFqi1gxWp3HU6Q83OJdFqRt8l6nut2lfUXDqh0wlXxx5fuUlPDzidV6n5z+vUPKbXnwRTr9u02Tk3OAsy4N2kawWnqbJIUU1TvpCX8QBlWLtKfbiOKwsgf3WpWrX6CX3r9cc3afVtBaPXqLmxTf0AHGq1q15O3+Nzwv568ipVAaCNx9Q/MD0g83ctDgNAyfeZDlFJEUpRye9xPH1lVUSZSH24jisKID3zYL4BzYOE3qwBgyGEjSqk/e4lOh0sgU8zQ8Hp8CB0FgCluc/0iVqKqgiB457TpwlZJlIfruNqAohnOQamJxlMatn7XnLXiNMxB5T1lO1AFyyzB2RCSwvL8JJk4U7DsRTVNOQHeZguIEl9uI6rCSB+M9oER2Tp/JNkALnS0d/nBqBU95kucanKLv+h8k9f+RRdJlIfruNqAog9l7w8IDOdcXlA5n3gAQ03DR87OwlATBpILujI76sJoAPuahlR8KxjQDx2owUaqfT2sZndjQveu0XZPSBeuWu87Rz7RvT0VSAppEmLe7rvp7vU/OrH2MAYcx/WOocTGVse3LqU+nAdVxRAg6tL+8EMlzkLFgcgTkctKOtQd7dPg7FaHIPQSny/vUvdrb1gYJtn5IIYMcFgN98nnLUbvI+7oIuqjFJUReVhOu8bA4aJgEDHJSoQPqpc0vwrMYDkeht5zO/qpF0HFA8g6zqglbdiPKA92rz+oY6YxzNs8jsVGmKJmh81RBoKLlgHNJ0wyQL+ogGUJc/5X1NZABUuVK+bNi3vouUvnLT2lQJLe431vMg7U6oxOUWNyzfCiIYqvk4kts8She97sQcaLhD14/8khU/VkDjTpM/5PbCa8nQ/DYOXeeU8R4tLZ7zGoh68TpHUuOm0Z5fopz/leEBG2p4nlCZ8q9rp41OxUFamYwGdaUvV2Ml347R2/3LlM7ocLNINPXxr+WT02qQ+XMel9IDyNFJ8WjyWdJZa3+m4v7tdaquCM9cYZSyk+PsXB5c0+ZKiSnO+/RwOpXqK/DCmO/Rt6yzNc2UPXjLlMuCYO3O0uHKDdiMLSocJn6orrxdi1V+sGnR7+WVSPR7Iwcz2t76hX6ku9f0OnZ0Nu8uD3fsUaR+kCd/aJ3+8cY4W375Gm70+7X73ie9dexMWJoC0Lb3Y1SoGtWmrMBKAB/lOl3aDc2YoiBaQk5alPlzHAFCCsfe3blI7iGqnWmfVWlwaeLnRXrmmGyCj5lmKKnNaHEPHGlaUB+tP0NnOXRHUnaGlQpQ+1sspuLurbK4nD2ryOzN6oa68kYaEK7y+jgEUWc7BjVLcBEeKtK0ztZxvHhbge8lwrVJTUQD5i2jNl14ZSjoN/UwR2HBech40l/pwHQNACQDKXLGOQLpSVFnt5IdWMSsNVzKukEYs5AMGkwLFA8t6Lu6W8XigSs8BIHPpg1xioSurP9up88SV1bwumHlVFf0utZeOUd08R6bN+ogL38rrw8x0+Fp+7cf5Br/KM9tKQ832TJF02Pajf0p9uI4BoKAwRzd41kpY1uukqLI+Q3xsJxMaYRmF1/37aACKeDeH1JeLTG2VlaFgXhcB3L/7ADLPkWmLro83KWEL3+q8F9tBekAMXfae+JxDCm11zx6MDQAKjZVVyLhu8jbMD0C8Hsp8hgl4QCYkpJdiA9AwHlBc2tz1jAvfygBydo3SAAgeEFazVtTLygNAfa6II48ByZafvYEUXTDr4s/oGFCkCxZ0tdKMAcmxGwaBTNvseuoxnyCAfR5jQEYaNqjCAzJbPvxdBo8uFwAd8IAyz4KFMz3eQGnqWbCMAPImFaKLTOfZK7FW1sFFo+5ZsHB6m2fYgrSDlcpx4Vt5UJxnwQ6pv/sNtVRsKg+ceqwp8JB4wFktQYifBYtCVXpS+dU9qQ/XMcaAKuqdTAJgUlQj3c9cu6LWAbXWvZXnXrqp1gFlBNDsGWr8hIPWqdCsX4X3dQDIXzQaF+xOV+iFt6jpXGuj1hJ1jPU9tvCttnVAPAtrAYdpS+s6ILPLa0knh3oh9eE6BoByMPRIla/E95eiKp8NxlPpymeH/Dwe89mlPlzHAFCJAWAW+KT/lqKa9L1Hvx8ANLoN4+El9eE6BoAAoMyTBFJU4xZz/ukDQPnbNAokqQ/XMQAEAB1RAEUry7gr41FM3wUd+T0ABAABQNBAZg3EgVWCxnUMAEF8mcUnRRUnRPx2NL0tqQ/XMQAEAAFA0EBmDcQ1Li7oyO9TAUhegGNYABaABfKyAACUlyWRDiwACwxtAQBoaJPhAlgAFsjLAqkAFNfPw29Hc4AR5Y5yT9JAGkgBQBiAHMsAZJI48Xv1AQYAAS6ACzRQmAYAIIivMPHBw6m+h5NUxgAQAAQAQQOFaQAAgvgKE19S64jfq+8hAUAAEAAEDRSmAQAI4itMfPBwqu/hJJUxAAQAAUDQQGEaAIAgvsLEl9Q64vfqe0gAEAAEAEEDhWkAAIL4ChMfPJzqezhJZQwAAUAAEDRQmAYAIIivMPEltY74vfoeEgAEAAFA0EBhGgCAIL7CxAcPp/oeTlIZA0AAEAAEDRSmAQAI4itMfEmtI36vvocEAFUFQPs3qXlshuq1wf/zS01qbzyg/WGfdfc2XV35OX2x1ZswpHq02TlH9dqr1Nx4nPHeeaRRfQAUDXkAaNhKOa3nM4CWOrQp89h7QNc/WKL52gk627k7BIS4Ap+jNgCUEYIAWBLgACBZWct87AKQ90zbtLHyGtVnz9Pqdj9lZQKAkioPfh8dsABQmaEj8x4LoEPa716i07VjtNy5pwHUp93uOrUap0S37RQ1Lt+gzd5j2lh5VXw/Q8dXbtJTdb/d27TaatAid/Vml6jZuUmbPRbjHm1ufEqNhbng+vmlC3S1uxMDvh3qXr1Ay7O6+7jwFjW9fMkumJnuCVpe+Yq6uy6gMkBlGjvUXbsUyVt9oUGXs3RPpe1xHFO2rAv7JwBUFfEkAKi/vU6N2Rmab6zT9sEh7eptPtoAAAxySURBVN/v0NnZOVp8+5oPj6Cr9go11h5S/4ArsOiC9e5S+40TVJ89S63vFFD2aHPtHVqszdHiyg3aVel6oAv/7u9+Q60ldY3L+9qj+503ab52ihqdLu0GaSoYMTz6tLtxgRZrJ2j5g6+9/O5vXaPzC3M0/0aH7gfwkyLn/HMa4X3Or216XdH9ra/pQmzeZHo4HofHBwAdFQBFAPWEuq0fUr32Q2p1nwStlw8P9na4AjOA+rS9dt4ylqS7d15aj/XgMUMsRaXtdal1ci4Aoy/yh7TaeCUEkD6nfvISdQPYcH5c9+L8awBZ02A7MKRS5LcqepmS5wCApqQgRm5dIoCxVCTr76pL8iW1Ox1qX2kGXSC/u8UVmAHElTUKrf5BFAS+ZzVDddU1u/IlrcZ2vQ6pv9Wh5UjXUOWd763B4J3DYBTP5vreK1MjDS5n1YVUz9vp0OcranBeeloibT4fn0EDNbJGLbYEgCxGGYehx56mFTCiQukuGI/lcBemrro1K59Ru/Mlra59TMs1ruhcgRlAPC7Ef4dpP91o0vEAImps6R+pHTtO5LrW/N4HEHtmtiUG6jt+pqiNOf/s3XB3keGoIHSNVltnQ0+rKloo0XMAQCUqrGgFCyur930CgPxKzN0V3cWZfZPa9/eCFo4r+igeUDSPcqCb723k2/Ni5uh0qyuWCBjwsJ5jpDNQjkYaPAYWGTNir44hlZQmfo+W7+j2AIAGhDu6UfMupFTpxQKIgcMDwfeovXSM7GMq7FFwBWaPh7ta5noiOQYUjidF8hwHkMxjQOGAdxReXH6cf9mNM0FnjDVVRQsleg4AqESFFanUZr5dAPJWM6uxjlPEsz/9A4bGa9Tc2PZns8TUuT9TJivwJv1r9ze0nzgLFs40+TNaCgY79G3rLM3X+F4MCP7ka07QcusbxyyYOCeYBdMzWAsXaMM6FS/z/5j6uzeoqZYG8Pm9B7RxmZcTOLwz08b4O/CWY7U4hJ0AoCGMlZfRx5IOA4jX5wSfc7TY+Ji+MNe67HapLdcALTSodfUKNU/OBZ5RME1dC6fvE9cBqYrdCQe0vXGbxLU2WdYBqef6lDa2wi5k1K4GgA5Ud7Aj1gCp6y/R1c7P6HTN9IwYjviM2jR/ewBAVQEQniP31nnclQ/pH6bhD30vzVkwZv6tA2wKm1ZdA2nYAgDBu4B3AQ2MRQMAEIQ1FmFVveXG8+XjnQJAABAABA0UpgEACOIrTHzwIvLxIspsRwAIAAKAoIHCNAAAQXwJ4jPX0+hV1MeatLE/oRbc+dIpL6iUiywnlCfoJkE36coBAIKQEoRkAiidsCbRLfDfvAd8JmHrcd0DAAKASgugcVUKpDu5RgYAqjqAzBCqKnph8AoDezdnqHlFhkSVYUr5HH5j3NIFi7xXpeLrcGhXLeTYPOhz4tIY6ILZwrN2xGsZOo9nmtQO3veaofrCeWonxSequh6m7PkAoCkrkFxbX355dOEdWvXemdqjzesfeoHHoi+cqhg5Osxqb5NW31Zxovnl0SQAmeMw/PKpfr8qMQ8KQAlpRADkDs8avGh6oAHkwbbjxY0O4h85Q8NOrtXPtYxLrl8AqOQFGCdmP76P8aIlhyb1BpEZLkaIDf3meBRSDg+I4+zoWNNmfpLzcEhmvGozDT9qog4Twvk3wrP6MaP5rXYNoAhsEPtnwK5ToH0AaAoKYbzC0BEKvTCkn1FTBWFXb8pHAGSGWdVxciLn2AHkR0M0IDdg07g8HFJiGtIDksfyPpGIj5ZuohnmVV6L44RxwPF5hwBQlcUXdKdmSO2O+rmC0NpX1FLByCJw4aBjLDQdfjVyThyA5HY/nIb+TMwDAygmDQkdeSzLjsOReBszAkDjbdSMMpblMOQxADSkwcpSsGGweKN7xV2YCFxMAA3rAXEURVOYjiiKkTwwgFxpcOB6/bsLQPCACvNiRqkTAFBlAcTjO0b3SlfUqAfEYycaIJFxHU7H7gHFj9/wtXF5yGcMyN8yiJ8DHtAoUJjktQBQZQHEs0XhJoH7WzfoMkdB9AZo9/Q+XmKKmrtMQcB6hogDQAMzWH3a/e4TPdN2je57GwrG5UHtbGrOgsk01mk74vXwcw1uUjgwC+Z5eeyVmc/B3+NzksAx7wUAVRZAqmLtULdzPtxGWa3Paf0faq/8QG9KyBsJnqDlxpvBedGtlM2Ka/EubGt4Wut62+SkPOhA9nFpRACknivlOiAAaOq7ZQBQpQGU1LqbcEk6H7+bLTj+Hk0TABAAhI35jrQGRgPIqAAGgI60+OABjVqBcP1oAAOAjjSARhMPKh/sN6oGACAAaOoHKkcVOa6fXlACQAAQAAQNFKYBAAjiK0x88Eym1zOZVNkAQEcBQF5IjFdoceUG7Zb+eS3rkJKeyXv14xU627lL+0nn4veJNkgAUOUFp9/HioSmOGotr149HazuPmrPP73PCwBVHUBebJ9jdLrVPdqtv+cFHauIFzi9QBm26wYAVRpA/Da6fBlUd2EWGvTRyhLNq9hANRWu40O63v2GrgbfqdCtfjRBFlXkXTLvmgt0NQhxymuKzlCzc4kaC3N+3CH1+kenG3b9Bl65OEHLK1/p1zZUxVKxg9apxe+sefmTIV4tXTAzzdklal69Hd7TK2N4glyO0/QJAFUaQDqsRiR6oK7AKlzp29dos8cvdyoQ8Quee7S59g4t1kSgMY6SqEClwrs6X1q1vNha47fUOSohh3s1Xjo9OCR/pwvO2yH1ew/o+gcKlJyGCSD9IuvsEl24/oD21XtiXt6NMCQq7e4lOh2kUx0vYpqAMmxeAKAqA0gH6fJDq3KF0xVYjglxfB75XSTAF4NDelJmGA32gBgU/v38Ss+xfiz3jtjffh9rGvpFU2vI1wMNXvk86j5We7Bd8DksPPI4HwCKVICKidB7i1x4Md6zmh6Eemb9nRdNUNsgAiDbNeK6SHAzDtuh04m8yb5H9ztvet0+P0LjP4qulz7fy+MOdde+pLaK4Hil6YX2UN3E4ys36SnnNe6ervCrDFr5nFUu/xI8GwBUgkLK3NJ4ld8MdWqDSQKAuOLq8SIvprQ8joNBBEAKMgouncgYj4JRe0N1nw4p2L1CdQdXPqN250taXfuYlq0AYo/JH8cayFfNgCHDCwCa6FR7nH4BoMoDKEcPKDKWJD0WdcxdMKPSDwBIXqdgpAesve7Sb2i18QrVjelydxeM72l0DV1lyiAFgACgOCriN1lJRzi2jnlk8IAO2NMwKjpXaA9MDINhACTBpdK+TW0VMD8COp7Js3XBeGDZhKwjv1Z7jGBfF+jwfWrAwQOqtFhiZsH0IK4P+4QuWDA7pafrvVkwnp3iGa0UAAo2KRQ7lO5+Qy21VdDCBdrYfUQbK6+JTRGjkQ/9wXQDoJymnAXzNl8Mw8Byg+Z7UtFBcv4Nn8WAGACqNIDYe5Cei1GBvedPBpCqoOY6oPpC3BbOWtBGF2x/6ya1g7VGauxGbhV9SP3dLrXlGqCFBrWuXqHmyTntGVnyb64DMreG9p5Re0XmzFily78YqAwDcwCo6gKs3EpoC4DSlKHXXcRK6GHgMIlzAaA04i31OXrquyotP487DTWQjHfBJgGTLPcAgEoNl5QudiXehufu5AzVZ89S67ud1AOdfQ9aeBs+CyDGfQ0AdBQAhGdMDyvYaqK2AoAguIkKbtwtKtJP6RVPie4BoCkpCFScclUclFc+5QUAAUDwgKCBwjQAAEF8hYkPXkQ+XkSZ7QgAAUAAEDRQmAYAIIivMPGVueVG3vPx3gAgAAgAggYK0wAABPEVJj54Efl4EWW2IwAEAAFA0EBhGgCAIL7CxFfmlht5z8d7A4AAIAAIGihMAwAQxFeY+OBF5ONFlNmOABAABABBA4VpAACC+AoTX5lbbuQ9H+8NAAKAACBooDANAEAQX2HigxeRjxdRZjsCQAAQAAQNFKYBAAjiK0x8ZW65kfd8vDcACAACgKCBwjQAAEF8hYkPXkQ+XkSZ7ZgbgNIkhHNgAVgAFhjWAt8b9gKcDwvAArBAXhYAgPKyJNKBBWCBoS0AAA1tMlwAC8ACeVkAAMrLkkgHFoAFhrYAADS0yXABLAAL5GUBACgvSyIdWAAWGNoCANDQJsMFsAAskJcFAKC8LIl0YAFYYGgLAEBDmwwXwAKwQF4WAIDysiTSgQVggaEtAAANbTJcAAvAAnlZAADKy5JIBxaABYa2AAA0tMlwASwAC+RlAQAoL0siHVgAFhjaAv8fq3+WcFkyy3wAAAAASUVORK5CYII=;fontSize=30;" vertex="1" parent="1">
          <mxGeometry x="-688" y="336" width="351.81" height="309.06" as="geometry" />
        </mxCell>
        <mxCell id="9b9OFLKVTD-ZKLy2y4Wj-217" value="&lt;div style=&quot;font-size: 30px;&quot;&gt;&lt;span style=&quot;background-color: initial; font-size: 30px;&quot;&gt;Segmento TCP&lt;/span&gt;&lt;/div&gt;" style="rounded=1;whiteSpace=wrap;html=1;fillColor=#60a917;fontColor=#ffffff;strokeColor=#2D7600;fontSize=30;align=center;verticalAlign=top;" vertex="1" parent="1">
          <mxGeometry x="-784" y="756" width="592" height="420" as="geometry" />
        </mxCell>
        <mxCell id="9b9OFLKVTD-ZKLy2y4Wj-223" value="" style="shape=image;verticalLabelPosition=bottom;labelBackgroundColor=default;verticalAlign=top;aspect=fixed;imageAspect=0;image=data:image/png,iVBORw0KGgoAAAANSUhEUgAAArAAAAIdCAYAAADFxk6GAAAgAElEQVR4Aey9/5Mc1Xkunv9kFw0qa72FbCjrGss3DvayjqQyBH/BsezdgGwEsTEkg/UpYRJBrtbIcsDEGhmEg7B2AEMhxK6ICLI0SlbxBg1GINAuCCFWA4LVftH94VaK+tSt/EC9t073ebvfPn3OTM/O9Oz0zLNVW9PT032+PO9z3vP02+fLnxD+gAAQAAJAAAgAASAABIBAhhD4kwyVFUUFAkAACAABIAAEgAAQAAIEAQsSAAEgAASAABAAAkAACGQKAQjYTJkLhQUCQKBbEfjk44/p/+/WyqPeQAAIAAEDAQhYAxB8BQJAoBsR+C86N7GP/n7dpynX00u5nuvp7/dN0LmPPzHA+G+af32c/ukHV+vreumKHxTo3879l3Gd+fX/0rl936Ncz/do9Nz/NX+MfP/k3D66oefTdMO+s+Tn/l90bvxe2nD9PjpnFidyJ74AASAABLoHAQjY7rE1agoEgIAVgf+mi+N/S1d4wlWJV/G/rkCvByL2E/r49QJtkL8Hx9+gf3r9/1hT9082IGA/OUuj13+achCwVfDFT0AACHQbAhCw3WZx1BcIAIEoAlogXvGDPXRy/r/93z6Zp5O7bqErer5Efz/xv/U5LSTX/R09+fp8NDqqhGxVgZlcwEYLR0QQsDFIcAIIAAEgAAELDgABIAAELAiYr/LN7+Et/5sm/u5LlOu7lyb+y/WOXwjYsxUtjnsp13cL/dP46zQvbovk818T9Pd9IiIcCOpP6ONzR8VQhk/Thr/bRxM1hzKEpcYREAACQCDLCEDAZtl6KDsQAALpIPDxOfq3h26hK/r+lg5e1FFZZ05awCaKwK6nzT9YHx2m0PNp2vDQq/SxTj+JgP3k4jj9MCJstcitKqKdFcAPQAAIAIHMIQABmzmTocBAAAikhgC/rldDAtbdSwcTRDR9MXk1/XD8gh5WYCsdR2DVpK9wqMIn8yeooCaECaEcEbAqKS5TIJA5LTnu9r9pfuJntCGI0NrKgHNAAAgAgc5BAAK2c2yJmgABINAoAuYr+1oi9uO3aPQHV9MVfz1OF8UwgHgxWHTGVyHwBWs41ja5gFXDBh6ng+OH6XUeuxvPGGeAABAAAh2JAARsR5oVlQICQKBRBD6ZP0b3qWW1gshnNEX+/YofPElng5UKoteE37SAtb3i90RzuGxWbQFLRB+/Sv8ULPnFwwfi42nD/HEEBIAAEOgsBCBgO8ueqA0QAAJNQ8AVNf1vmn91D23uU8MBkohXVaAmC1iV5MfnaGL8cbF2rRKy0fG0TYMCCQEBIAAE2gwBCNg2MwiKAwSAQGsRiEU8g+wtAjZYXutq2rzrRGT1gOA264ElLe86Xlu2niEEtgzURgz7/VUJbFFe2y04BwSAABDIMAIQsBk2HooOBIBAExDgSVLrfkYTwVhStUzVuB/dDIYQ/B96/aFveLt03TdxscqELVuZWMDKSVwiDyE6Y4KayxeUg5ftuoUKr/J6tCoi64/Hrb6cl61sOAcEgAAQyB4CELDZsxlKDASAQFMR4CioXG+Vx5X+NY2e9beJ9YWl5ZpgN674BK2wmDyE4Gb6+63XG8toRVcwcApYlY9ercC5jFZPNK0wfxwBASAABDoLAQjYzrInagMEgMCSEKi1MUAYQY1sNRuIVyVskwjYe2ni4hk6+HdaxKqNDI6dC9aAVUWPCVj6hD4++6Q35jYXLJNlllct+/V3NDoRTWtJUOAmIAAEgEAGEICAzYCRUEQgAASAABAAAkAACACBEAEI2BALHAEBIAAEgAAQAAJAAAhkAAEI2AwYCUUEAkAACAABIAAEgAAQCBGAgA2xwBEQAAJAAAgAASAABIBABhCAgM2AkVBEIAAEgAAQAAJAAAgAgRABCNgQCxwBASAABIAAEAACQAAIZAABCNgMGAlFBAJAAAgAASAABIAAEAgRgIANscAREAACQCAVBNTasfgDAkAACACB5iEAAds8LJESEAACQMCKAASsFRacBAJAAAgsGQEI2CVDhxuBABAAAskQgIBNhhOuAgJAAAgkRQACNilSuA4IAAEgsEQEIGCXCBxuAwJAAAg4EICAdQCD00AACACBZiEAAdssJJEOEAACQMBHAAIWTAACQAAIpIwABGzKACN5IAAEug4BCNiuMzkqDASAQKsRgIBtNeLIDwgAgU5HAAK20y2M+gEBILDsCEDALrsJUAAgAAQ6DAEI2A4zKKoDBIBA+yEAAdt+NkGJgAAQyDYCELDZth9KDwSAQAYQgIDNgJFQRCAABDKFAARspsyFwgIBIJBFBCBgs2g1lBkIAIF2RgACtp2tg7IBASDQEQhAwHaEGVEJIAAE2ggBCNg2MgaKAgSAQGciAAHbmXZFrYAAEFg+BJYsYJVDxj8wAAfAAXAAHAAHwAFwABxolAP1SuGGBGy9meF6IAAEgAAQAAJAAAgAASAgEVDit94/CNh6EcP1QAAIAAEgAASAABAAAk1DAAK2aVAiISAABIAAEAACQAAIAIFWIAAB2wqUkQcQAAJAAAgAASAABIBA0xCAgG0alEgICAABIAAEgAAQAAJAoBUIQMC2AmXkAQSAABAAAkAACAABINA0BCBgmwYlEgICQAAIAAEgAASAABBoBQIQsK1AGXkAASAABIAAEAACQAAINA0BCNimQYmEgAAQAAJAAAgAASAABFqBAARsK1BGHkAACAABIAAEgAAQAAJNQwACtmlQIiEgAASAABAAAkAACACBViAAAdsKlJEHEAACQAAIAAEgAASAQNMQgIBtGpRICAgAASAABIAAEAACQKAVCEDAtgJl5AEEgAAQAAJAAAgAASDQNAQgYJsGJRICAkAACAABIAAEgAAQaAUCELCtQBl5AAEgAASAABAAAkAACDQNAQjYpkGJhIAAEAACQAAIAAEgAARagUBLBWwrKoQ8gAAQAAJAAAgAASAABICAicCfmCfwHQgAASAABIAAEAACQAAItDMCELDtbB2UDQgAASAABIAAEAACQCCGAARsDBKcAAJAAAgAASAABIAAEGhnBOoSsAuLlwj/wAAcAAfAgeQckB0AcEuOG7ACVuBAd3NA+k7bMQQsRDkeSsABcCBFDkjHiw65uztk2B/2BweSc0D6TtsxBGyKHReImpyowApYdSoHpOPt1DqiXmi/4AA40GwOSN9pO4aAhYBF9A0cAAdS5IB0vM128EgPogEcAAc6lQPSd9qOIWBT7Lg6lVSoFxwmOJCcA9LxArfkuAErYAUOdDcHpO+0HUPAQsAi+gYOgAMpckA6XnTI3d0hw/6wPziQnAPSd9qOIWBT7LhA1OREBVbAqlM5IB1vp9YR9UL7BQfAgWZzQPpO2zEELAQsom/gADiQIgek4222g0d6EA3gADjQqRyQvtN2DAGbYsfVqaRCveAwwYHkHJCOF7glxw1YAStwoLs5IH2n7RgCFgIW0TdwABxIkQPS8aJD7u4OGfaH/cGB5ByQvtN2DAGbYscFoiYnKrACVp3KAel4O7WOqBfaLzgADjSbA9J32o4hYCFgEX0DB8CBFDkgHW+zHTzSg2gAB8CBTuWA9J22YwjYFDuuTiUV6gWHCQ4k54B0vMAtOW7ACliBA93NAek7bccQsBCwiL6BA+BAihyQjhcdcnd3yLA/7A8OJOeA9J22YwjYFDsuEDU5UYEVsOpUDkjH26l1RL3QfsEBcKDZHJC+03YMAQsBi+gbOAAOpMgB6Xib7eCRHkQDOAAOdCoHpO+0HUPApthxdSqpUC84THAgOQek4wVuyXEDVsAKHOhuDkjfaTuGgIWARfQNHAAHUuSAdLzokLu7Q4b9YX9wIDkHpO+0HUPApthxgajJiQqsgFWnckA63k6tI+qF9gsOgAPN5oD0nbZjCFgIWETfwAFwIEUOSMfbbAeP9CAawAFwoFM5IH2n7RgCNsWOq1NJhXrBYYIDyTkgHS9wS44bsAJW4EB3c0D6TtsxBCwELKJvDg7MVd6n9x2/wbF2t2Otx/7S8dZzH64Fx9qeA/MXqPLBAvqQRP3EPFUqHwGrRFj5bV/6TtsxBOziAs2Mb6H+nl7qv7lIp+ctTnO+TIV1fZRbt5vKtt8XF6hS2kGDPetpy/gUzdVhoLZ3UJa6zJV304aePtpQKHdoXc9TubiFBp32tnDEglNN29bkVZPySVq2ditP0nK3+XXS8dbkRFvWBT6yXrt1vo9coEq5SPmBjVQopynKPqJy4UbK9dyYaj6p26tSptH8daLPbE296uVtu10vfaftGAJWCNhczxraVDwVF2W1OvbKURoZuK4rxKsieOqNfbk78Vr2blb5WpVP0vK2W3mSlrvNr5OOt906iGTlCQUsfGSyh8qO95GLrRJgrcknbXvF029NvZK172ScXo60pO+0HUPARgRsL+VW3Uajp2ejYX507BE84o2xfRvAkhpdq+zdqnzaXOAtyUYZqpN0vNmsqxSw8JFJbNjxPhICNtIn1uJE5/MhHQ0gfaftGAI2ELBr6c5f7aRNqyxDCSxCw0VI//xayo+f9Qgefp+iqSMP0PCqXlJRjOH7X6IpNRzBe7WwnnI9qmMYoh1H3jIiwOpVzUEq5PU1PX00mH+UStNSZOunuXW7qDT5iM7jOhopzfiNrPIKHdg+5A2T8PIZyFNh/BWqJBEB829R6eE8Dary6XKfPmEbQnCeyuO7KT/Q59elZz3lHz7q17FaPjMHKa8wzz9Pp71XUv79/UMjNFqSWLieWB3nK6/QWIHL3Uu5gTw9HEmPI8k3UqF0lApDayinsL3jTvorz0aqvuo/tOWCGipSfo5GvGvVb8oWu2msfD6BM5ulqdKjAT79Qw/QkdPH7UNTEpTd7TDPU/nADs0BVcb1lC8cpHIlHKfmc9Ko9/ajVLHwfGExWm7F0ZHiM1S4Y218SE3NcmtbrdpCB078nh4OOL2Ghrc/Fymju37pOMo085OON8180kubBSx8pBXjxD4yiS+38DstH7lY22fbfcVTVMyv1f7R95P9+YM04/n5RnzkJZqbPhr6Ba8/fI1etg0hqOlrLDhyP9Rse1XtX7nt+Dj5/fwWGpu5YAyNqNc31vbzVq4yBhn5lL7TdgwBKwRsfnyKThdvo/6IaLlEC5aO3W/Y8XGgoWCVAnYNDedv0yKQibyW8geO0ujNSjjxOfUpx/osUOUEC1J5jRJk99BYIGI1+Qc20jALSB1Jnpt+nrbwuUg+fTSoREs1Is9P0dhPWDhz/n00OLSRBiNjYM/Ty4VNoUAO8umjwZ88X13EsnMeupPujJVTiHDnE79FwFYmtSDlMvNndIyyb6traXjoWm2DNbTpnx6gO60Cdpamxu8xbMjpynLaHKfjXraXHGubsOxW52S1ly7jwA4qaRFrrbcaOhPjOY/t5noan3WXm530NTT4Z/ygE6YZdoI2DLN7Tjpeq92qtcG2+I07YfUwBx8ZsaG1zdl8ZFJfbuF5Gj5yMZnPtvuKo3TAKmAdfs7rD2r5SCVebX0V+2fRLzbdRzZgr/lTlj5c+TQOfHDbCf1cblU1AZvAN1o5p9MXfj7C07bwIxZu1yiX9J22YwjYiIA9SwtMSEmEWMfO0bukAjYaXQ0bqorgFXXkiR2KSJPzjURmZ4NIbtjhs4gzBeMMlbZfF0ROvYivF0VUg++VgBBOwUIk33n1khct9MSyerrme8Nyxq9Tov8tOnK/ivpyQ3aQVztnP5rJWIg6BhPruI5mmc3z/F1EudW43emXaIeKnHrOw49GcrmjDwP2B5YFb5xznxEl15O9lIOWYs7E0mZHGXkP7k1e9rhzCsVmaC8Z4Y/bq2a9m15urp+DU8I28fo5+GNi3YbfpePNZr24E9ZtGT4yeOPCPiRsc3YfGQRBavpyC8+b7iO5/5Lt0O6zuX4xX2ELKDTiI4P0pN8W/jXoq9iHyOvs/t3W1rg+zbKXn140GMT9e9g/M96hD14I6sv9GddL2kRwKfCNyf28rf5ZOyd9p+0YAtYUsErsnC7SplWClNyRB0LDRkjf8fiEDkUbEzw6Y/8sjakn2ICU8t6Q5GZaIfk02YP7mfzcGLQTtJSb07CXSzpPzsMcE8ydGZeTr1NPleFrai8fnb9syJx/8MnOWT4weCLErJP5nctqnK+Sp4mnEwMLbs5rY46IyxV++vdaJghy3ZlXdZQ9wC8QbAYOwfm4IHfWxai3s9zcUdVdblcZdXsIOqkQu3g9s/ebdLzZrA+3eeHX4CMpECGxeROMF/tI7i9C/EIe6DYR+HILv9lPNMtHss+y5Wn4IKev4DREm63n2rD+ur6cbxCwYBwM38DXBUMW+LpqGPM1jHWtPq1aWpyG39/5dfaHqBWKRXrSGKbG9YxjY/pC8zuX2ai/BXfOI3hIYr8s+4CMHkvfaTuGgLUIWDXuzx9KoF97GB27IkyckD7h/POho7Jfl0TAshMUrx6CV/N8jgWrg/za8VkFZLXfPLLbyxivOzcwLpPls1qDcpaD689YOupoNmh29jGsuFxmpxJ+dzsCsyzsXNRntd9q/G7yqo6yB2UNHJPbXguL0d/snDSFLteLOSbrrNNjuyYud0IbBnWSeWb3WDreuN2yUC/mArdFVWb4SLNdSdtG2xjjxz7I9mlrZ5obzfaR7A+cPjJ8oxSth+Sq2Za5jpIjfH2132rV0cgnsa/hvOVn1A82x178llPaVI3pL0bmqcRxNOpl9mOBDzSvc9ehGh9lXbN0LH2n7RgC1iVA5Guymf+MTbaJE9JvKP75sBHbr7OTMHotN3rZMMxjdnomyWs5hUu04HSK3ODtZVTkj5ZTX5fAGVobjrMcXP8adTQbfh0OLloPrrcp5NR5Lkto17Au1X6rcS8ErH4V6+Bv4MSFbTJ4TjrekDdZqpOD4/CR1jdpcR/J+Jn+W35nP2fhRbN9JARs7G1htC+o115qMlxRTLTWdhUR82j6ysamzzO/Mw/M8+5+GQJWelrLcTadLxPB9clkjYuTYCjBfQ/RiLGRQZyQKv14Wvbr7CQ0r/W/x8sVt4NJcl1XUyCJzt/My5lmzddjOm/b6yiRXzx9XUYWnBzNC+4x03XUMXDGugPQdbZGnYO0/bydGFhwc14bc0S6XiIv/97GhhA48QvyceETF+TOuhj19q+z8M+4jl9d1cbcVUbX+TiWtXFov3ukK81i+W1+jesBH3mjZelF7gfCtzvOthS03yq8bbaPZJ+VwGc7fQWn0UZDCJiT7k/tZ2r2aRyksfi+mvZS41ZfoN96q/6E98dxNH2e+Z35YJ43v/N1cT/vxkHcU7M+y3ut9J22Y0RgLaIzNDy/JtNPVFJksVMJVgMQA67FxKU4cRUhkglYFgbmElDBhKTgCc9Fan69IQe8y3JWeeoPIq2OQeViFQKuY3R5L56IJcYS2xoL4yiXFlPLu6idsNTuaMFYJ66jnKgWXhdOSOPrjGW8gkll4WxYLnd0fLLDEfC4z8gkDJG/5IZZTxZ88t6qk7hqlz3kKDuY5IP7E9e76eVm25i8c53numX7UzreuN2yUDcWZGGHHNYDPnKD8lNqWbwqE12T+3ILH5ruI1mgmUsyxn2201dYBGxDE12D9GRfJfxrIJTZVyzFR3K9m2WvOb2Lpyyzsh9PyA7bSxxHrgf7QvM788A8n9zPh22U08rep/SdtmMI2KoCVokZsUxGRKSwOJSvgXi5rGrEVSRKKGCDLWplHnwsI3omyUOi8ozI6FJdKo0awtITYdXqGEYXFhZt1+lyxp52w7J5DUw75/6NQ/TdyPJV8QXT/WgP15/T30j5O9RSX+wI1Mx7tTNafJkmhYHcLjjuVHTZWLipYRFB+RtZIiZ0OtIO/bx0mORVwrJbnVPC5VVq1jsoj73cQR2C65Ji7uKp67zBFfPBICPfpeO12q3t61FNwMJH+iu9SL/E/YD0kdXakvTlFs6n4SMT+mynrwgEp6o3l78RH+nwIauW7t/tbc3WVzVgL6kPjGF08b7G54h/3vR55nfmgeV8Qj9vrz+nm41P6TttxxCwtQRssCpBOLA9IEZkAeP1lC+WaaasFvlvloBVJFMRU7mRgXp6TLrIv0/SueljNNrIRgbFkcgGDMk2MogPZA9wkx02O+fIRgauDQLUovrFcCOBgS00Wj5jLAitG6a50LW3AP+xyJq0bucs12wMbekv6i/yr3sjg/BeL2KTdCMDS9mtWCpc1SLdgb2Uw3RtZCA7V40ZC3cpTG0bGezb5S/DFrlOdUDG5hGxclucsccF13ldLsmXDB5Lx+u0W1vXq4aAhY8Ubc6Pxtl9ZBJfbuF8Wj4ytpFB3Ge7faRq7+F62+GbMsNH1+Uj1XJYoq/y3lgl3Mgg5mssOHIbi/jIJtgrogPsPjeMyqqgSJV1YGUgxiuvwzdG6uDKswoGjEWbf0rfaTuGgG1zA2azw6uj4QTOmXdyqeNe2C5Yj7KlPNFCN+y0YLNq+EvHW+06/AYeWTkAH7k8fg79y7LjLn2n7RgCFiRdXpLCOS8v/lX4z9GXcLMNJTB4XJolglslLWvH3CXXS8fbzTig7ksU6PCRbesjweklcjqh75e+03YMAZsQSBA1JaLCObevc64yvisXTCBMiRcd1C6l44UfAV/q5gB8ZPv6yA7yU3XzsgV1l77TdgwB2wIjtCMx2qZMcM7t7ZzNca1qtQhjke624VKbtmXpeIEVBGzdHICPbG8f2aZ+p26etWE9pO+0HUPAtqHROoF4qAM6anDA54B0vMAE7QIcAAfAgWQckL7TdgwBCwGLp1twABxIkQPS8aLjStZxASfgBA6AA9J32o4hYFPsuNAA0QDBAXBAOl7wAXwAB8ABcCAZB6TvtB1DwELAIvoGDoADKXJAOl50XMk6LuAEnMABcED6TtsxBGyKHRcaIBogOAAOSMcLPoAP4AA4AA4k44D0nbZjCFgIWETfwAFwIEUOSMeLjitZxwWcgBM4AA5I32k7hoBNseNCA0QDBAfAAel4wQfwARwAB8CBZByQvtN2DAELAYvoGzgADqTIAel40XEl67iAE3ACB8AB6TttxxCwKXZcaIBogOAAOCAdL/gAPoAD4AA4kIwD0nfajiFgIWARfQMHwIEUOSAdLzquZB0XcAJO4AA4IH2n7RgCNsWOCw0QDRAcAAek4wUfwAdwABwAB5JxQPpO23FdAtaWAM4BASAABIAAEAACQAAIAIFWIgAB20q0kRcQAAJAAAgAASAABIBAwwhAwDYMIRIAAkAACAABIAAEgAAQaCUCdQlYjNtINm4DOAEncAAcAAfAAXAAHAAHls6BWmIYAhaTuDADHRwAB8ABcAAcAAfAgbbiAAQsCNlWhMTT6NKfRoEdsAMHwAFwABzoFg5AwELAQsCCA+AAOAAOgAPgADiQKQ5AwIKwmSJstzxZop6IooAD4AA4AA6AA24OQMBCwELAggPgADgADoAD4AA4kCkOQMCCsJkiLJ5G3U+jwAbYgAPgADgADnQLByBgIWAhYMEBcAAcAAfAAXAAHMgUByBgQdhMEbZbnixRT0RRwAFwABwAB8ABNwcgYCFgIWDBAXAAHAAHwAFwABzIFAcgYEHYTBEWT6Pup1FgA2zAAXAAHAAHuoUDELAQsBCw4AA4AA6AA+AAOAAOZIoDELAgbKYI2y1PlqgnoijgADgADoAD4ICbAxCwELAQsOAAOAAOgAPgADgADmSKAxCwIGymCIunUffTKLABNuAAOAAOgAPdwgEIWAhYCFhwABwAB8ABcAAcAAcyxQEIWBA2U4TtlidL1BNRFHAAHAAHwAFwwM0BCFgIWAhYcAAcAAfAAXAAHAAHMsUBCFgQNlOExdOo+2kU2AAbcAAcAAfAgW7hAAQsBCwELDiQgANnaSy/lnI9a2hT8RTNWTCbK++mDT19tKFQtv6+sDhDpe3XUW7gHhqbnk2QZ5Y7oo+oXLiRcj03UqH8UYfXdTnsBHy7RaSgnsvRvrKRJwSspSNGg8kGeWGnVtqJBWwv5VbdRqOn4wK0uoBdoEppBw12hXhVdoHASrd9At908W2lb0FesOXSOAABCwGL6BA4kIADQsD29FL/zUU6PR91OtUFbPTaznfYEFidb+Nu4zTqC063FwcgYCFeEoiX9iItnMhy2EML2FW3069+tZn6LUMJ4gLWJeL0+VVbaGxmweOff+9ayo9P0dSRB2h4Va83XGH4/pdoSgnlSplG8+sp16MiwEO048hbxjCFBaqUD1KBr+npo8H8o1SSQxXmy1RYt5o2FH5Pk4VN1K/SGthBpYoqg7r/ORoZWuPn4d2/m8bK5xO1j7npo/Qw5+2V7zV62TqE4DyVx3dTfqBP57Oe8g8f9etYyxdVXqED24f8cntlz1Nh/BWqRO5LgANfX3mFxgp5GlRp6fQeLjGuNWwXGxpRu16BjQ8cp9LDYb79QzvoQAznWvWwlU/d8wL9VmLUs4aGtz9HZc/Gy9FukCf8NTiQFgcgYNmZ4zNRR50WEZFuuzs5FrBbaOy912j05jWUEwJU2a9xAbuGhvO3hYLKE1ZrKX/gqJ8fCy3vU44tXaDKiUe06NVijK+VQxa0gB0c2hjk4UeSZ2lq/J7gnCfm+P6e62ikNFO1bcxNP09bAkHK+V9Lw0PXGmNgz9PLLJyD9NX1fTT4k+eri9j5UxYM1L1K9J/V5UuIg/J1zvS4vjaBqDhqO5+sXj4/VtPggBpLzTjpT5NLp4u0yXuIMa4LHjji5Zhz3eN4YwCf0+4+B+UDR6tzAAIWwrVq54wGVL0BdQ8+QsDOLJAvFvpocPvRIALYuICNRldDYaiiqUUdRWOxJCaLecK0z4jMzgaR3P78QZrxRJuKwKrI53raMj4VRnArR2lECdBIZPc8lYtbfFG7bjeVjeESod1ZSK2hIFq8KO4VkUofn17qH3qAjnBkeP4tOnK/iqpKIRrnHGMbwVsL51j9IvWw4LC4QDPjW6jfizIzrnZ2mo8AACAASURBVOZ1XC/5oKDKFT+ftF58XQTnILIu68/DVdZTvlj2+RXDySyH/h6puxTqZj3iGIc2xW/AAhzIAgcgYCFgIWDBgQQciArYhcVZOl28jfpFhJJFVrgKgSkyuFNgsWEOIRCi1LOJmad/v5mP/10KIEc+LHQNQWqmFzpuV/k5fSWQfFEcHxPMIoyFU7zOQT6cBgttCx/9MqohD3kqFIv0ZPCqPyxLYhwWzbKFaQRlsghV/zcTk+T1suMciumANzMHKa+ir4adwrKp8prlEHVQQyOKRRotFsVwAraDuM6CczQPXAs8wIF25gAELJxYAvGCRtzOjbg1ZbOISX4NrV/rxgWKS2TERU/8XsU5S56xoQosgIxXzZFX1Fq8WAUs328TwNV+021Ci60gChr4E7PuLBqrlLOqYNNLkEXqpcZ3FvU4Xy5rlfQ5Gsw4GK/tozwyy88+wDyfvF52G8eHnvjX9VIcUy6D+jTLYYyTjuCkMIGAjdpXYoljYJNNDkDABh1ONg2Ihge7tYYDDjHpjTv0hxLMxNaBtYgMr73p80JA2cWNI89IPksQbhGhyPe3u4BVPFcTpYpiopoWq94DxJweFtCtApYFvhpussuLvo4Wn6XS9JRevxgCtjV+Av4YOLeOAxCwELCIwIIDCThgF5NyKMF9hW3GRgYuARtPa+kCliN4NgFqOFKOPEYELN9vDl9Q97rKL9Ll1/+xZcV0HYPIX1y0N9bRyRn3ft19DBPgwJHtoGyiPkFbcNV96fWy29iC/1KGEDgj4WZ5bXXFuca4CPyA3/JwAAI2cNjLYwAQH7hngwNx0RmUm4cSeK9tpRDk6KacZS8mODUlAhuOQ1XjQ8NloC7R3PRLtEMti8Uz1x0CdqGlk7jM5b148lR0QlyAreefGEc5UUy1G57QpkUr168WDtZJXAovvZqCZ5cLeicxh+2E+GVhGl22LF4vvi4Y66p9b/w8i04xiWsxXCnCH1pgCOyg7mKXt8iyY4jARjkFvws8ss8BCFgI2ATRt+wTHc6qURtWEbBqXGqwhJEUsGpcop7hL8ckrtpI+TvWR5bhiosYVV57nvFr9S5fMo/gWGx9yyLHiMCqKHIjy2hVraMQesFWukHZxOt+x+5mAW8jDwnivsgSUQlxUD7PmV6IV2hTkR/bbgn1itvN56TtvDVvhVuAkyFgeZtiG7beuSSR6UbbCO4P+Ip+Ff1qCzgAAdsCkNGo4dizzwG7mAzrxasSGALW3CBgYAuNls/40b1mRWC9NmwufK+WqxqhUTlb3ylgFT9naapUbGAjg2M0ygvo17WRgZyIVaOdRCKKSlSup3zhoLFIfwIc2OdZNjKIboxgYCJtFxGwqtzmRgbxetmEquKP/bxZDxW5lhtLmAJWiXJekkwL7lVDNLLvBXq5tMsY2lIDZ8YHnxBh4EBbcwACFgRta4KGAgmdDrAAB8ABcAAcAAfAAZ8DELAQsBCw4AA4AA6AA+AAOAAOZIoDELAgbKYIiydPRB/AAXAAHAAHwAFwAAIWAhYCFhwAB8ABcAAcAAfAgUxxAAIWhM0UYfHUjaducAAcAAfAAXAAHICAhYCFgAUHwAFwABwAB8ABcCBTHICABWEzRVg8deOpGxwAB8ABcAAcAAcgYCFgIWDBAXAAHAAHwAFwABzIFAcgYEHYTBEWT9146gYHwAFwABwAB8ABCFgIWAhYcAAcAAfAAXAAHAAHMsUBCFgQNlOExVM3nrrBAXAAHAAHwAFwAAIWAhYCFhwAB8ABcAAcAAfAgUxxAAIWhM0UYfHUjaducAAcAAfAAXAAHICAhYCFgAUHwAFwABwAB8ABcCBTHICABWEzRVg8deOpGxwAB8ABcAAcAAcgYCFgIWDBAXAAHAAHwAFwABzIFAcgYEHYTBEWT9146gYHwAFwABwAB8ABCFgIWAhYcAAcAAfAAXAAHAAHMsWBpgrYWonhdyAABIAAEAACQAAIAAEgkDYCf5J2BkgfCAABIAAEgAAQAAJAAAg0EwEI2GaiibSAABAAAkAACAABIAAEUkcAAjZ1iJEBEAACQAAIAAEgAASAQDMRqEvAYlYgZgWCA+AAOAAOgAPgADgADqTNgVpiFwIWsxIzNSsx7QaD9OGUwQFwABwAB8CB5ecABCwEKgQqOAAOgAPgADgADoADmeIABCwImynC4ql3+Z96YQPYABwAB8ABcGC5OQABCwELAQsOgAPgADgADoAD4ECmOAABC8JmirDL/cSH/BF1AAfAAXAAHAAHlp8DELAQsBCw4AA4AA6AA+AAOAAOZIoDELAgbKYIi6fe5X/qhQ1gA3AAHAAHwIHl5gAELAQsBCw4AA6AA+AAOAAOgAOZ4gAELAibKcIu9xMf8kfUARwAB8ABcAAcWH4OQMBCwELAggPgADgADoAD4AA4kCkOQMCCsJkiLJ56l/+pFzaADcABcAAcAAeWmwMQsBCwELDgADgADoAD4AA4AA5kigMQsCBspgi73E98yB9RB3AAHAAHwAFwYPk5AAELAQsBCw6AA+AAOAAOgAPgQKY4AAELwmaKsHjqXf6nXtgANgAHwAFwABxYbg5AwELAQsCCA+AAOAAOgAPgADiQKQ5AwIKwmSLscj/xIX9EHcABcAAcAAfAgeXnAAQsBCwELDgADoAD4IDiwPwFqnywACzQHsCBDHAAAjYDRsKT3vI/6WXLBgs0M76F+nt6qf/mIp2et+A3X6bCuj7KrdtNZdvvizNU2n4d5QbuobHp2Y535nPl3bShp482FMo0B5/QBHt/ROXCjZTruZEK5Y8aTi99+yxQpVyk/MDGppQ3W/7C4h/QBhrmLDiQPq8gYNFQ0VA7jgOhgM31rKFNxVNxUVZVwC5QpbSDBrtEvKqOJn2BlL4zb68OM2sCtrnlbS9bdBv3UN9u4R8EbMeJFzTebmm87npKAdtLuVW30ehpI4paVcB2H4cgYLvP5tH2AwEbxaPb+YD6Z4EPELAQsIjAdhwHWMCupTt/tZM2rbIMJYgJWFcHrs+v2kJjM/7YQF/sraX8+BRNHXmAhlf1kor0Dt//Ek2p4QiVMo3m11OuR4nnIdpx5C0jAqxe1x6kAl/T00eD+UepJIcqeOVbTRsKv6fJwiZvOERuYAeVKnp8YuUVOrB9yD+v8hnIU2H8FaokseX8W1R6OE+D6j5d7tMnbEMIzlN5fDflB/r8uvSsp/zDR/06VsunatkT1J3TrrxCYwUup1/Hh0sGlglwCOx14Liody/1D+2gA+XzRvtX5XuORobW6Dor2+ymMet11Wxo8knw6L0pOnK/tl3AD36F72PdP/QAHRF8sD9gJLCP5nl//ll6ufRoaMtVQzRygPlylsbya3V9FSd6qT9/kGY8OyTFA4InC4IHZewsnkLAcmeBT6Mj6yyid5fjCgWsEpmni7dRf48SnGdDGzcsYNfQcP42LQL9Tj+n8jhwlEZvZvHD5+U4yAWqnHhEi17+XX/KIQtaBA4ObQzy4PG8c9PP05ZAVMo0+mhw+9HqInZ+isZ+osW1J2DV/X3k5yPHwJ6nl1k4B9fpa3/yfHUR6yx7wrorXzR/yoKjyv86GinNeHZMioMv/lbT4EBUpPkPGOGDycLiLE2N3xPg7f0e1D3MV7WludNF78Eoeo0S2fyQ4RKwGyl/h4H/qi10YHJfPD0xPjsuYBPahwXswLX05aAuzBluEy4BmxyP7vIv6Btg7/bgAAQshGsoaoBFh2AhBezZUAwF4kIJJHMSlyk42EGJyFkkAhuNroZiSkXsilT2IqUsMoQw5HyDyJvKZzaI5AaRL76uZz1tGZ8SEVw9uUxGfBdl9E6KZa5D+OkLIRV95AifvDcsZ/w6hdlbOnLIwidMN9KhucrO52vVfZHtJ7E0MUqOA9clEg0PouSiLpWjNKIeDCLlO0/l4hZf1AaCkgXfesoXy/4DQwwbk0/8XWIvBaJIqzJJBS8CHNrSFLBcp9CODvsw5hG+hHUK+LbI5QvzXEiMh4MH8Kcd4k9h34h/ayNeQ8C2kTHalSQoV9YcGAugUJz4ETMRoeSOPRAllg7caxv6fGwIQSj2fH5oUSOuU+ftwiMsV8gtI59Y+bQNXOcteYVps/04D3NMMOPFdeLrZHQymn8ofDht8ekoo49FgrovskAUYsr0U4483Jhz3bicZp3jtgrx03jwigIzBymvho0E3OE05adxj00gqjrptKJ4mveaZavDPi6cYnWolWe1usnfcBzyBlgAi3Q5AAFrdgz4jqfmzHOAxYkUS7N6KIF+FRzr2OMduO9842LBFKX+dUkELJeLX+HaPrVoi5VPO0Kr4Enwm2dTexlV+aN1YgFpK58+V028Wcu+hLobDwORzrAOHKJ1CzuU6Hkun+QMXxv9zb9PjhPl6+SnySfzu77WWo/4tdGy1mEfqy2SvIGI1jmCfRAht2ElMcBxFDfgATyaywEI2MyLleYSAg2sE/B0dL48rlINJZj5T2Md2Lho8LmgzwsxFRUTjJddHEav5XJVEYYc5XMJD6vg0WWo9hsEbGyNW7ttbKKM7eb/5t8HARsbV46+BMEPcKClHICABeFaSjgIZBZ8aX5GBYfEPBhKcN9DNBLZyMAlYOPCNCp8uB7x61S+5rX+d5tI4nT0p0vAus5b8pL19o9ZjDcwhCCJv3CUMXHdWzKEwGUbc6iBsofBDf2g0JZDCEz7OGyRZAy4yd2QTwYeZp74jj4FHGgJByBgQbSWEC10/oZQAf4p4O8WsGrClL8qgfkqnO/po8Fgln042SXXlAiseHU7kCe5JNTc9Eu0Q03c4YlmLuHBO4RFJuXIiVhVxo0GIldOJJL3huKNxUt0eS+eSCXGEtv46yo7n69V9+AVtZzEdYmCiXKeLc75O6UlwIHrYu4yFjufeNISv8IXE6/ECgb+eFZT5JnftR+wRs3j15pl5e817cOYm0M+YufjeWISF3w1+q325gAErK0DwrkURFV7N4TOclQsRh2RTh5KoJYVkh07Cxi53NAqvexRswSsWjFA7fIl8wiOxa5hMYER8icQcsF9PCShhrD02jXP3ud71CcvCRYK2IVAKMvr9LFtYwjpM5xlT1h3lZa0UaSeIUZJcWCxV1PAChEaWx5LLN+l2opzGa0AG1MQmt+1PZcoYBPbx2WL2Hkun88Hf/c6uUqCyYPosmKd5T/CtoZ6AYt25gAErOx4cAzh2hEcqCFgpQCRAtZbjkosYj+whUbLZ/w97ZsmYFWHoKKechF8FREdoVG5SH9MYEQ7krnpYzTayEYGxZHIBgzJNjJYQ8Pbi9ENF2x8qVr2BHXnNC0bGZibNSTBIbmAVRjP0lSpuMSNDOSGBywIOSJuftf2XLKAVfebGxlY7OOyhe18sHyXHN+bFI8oP9u500fZYKtO4QAELHcW+IR4BQfAAXAAHAAHwAFwIBMcgIAFUTNB1E55YkQ9EP0AB8ABcAAcAAca5wAELAQsBCw4AA6AA+AAOAAOgAOZ4gAELAibKcLiqbXxp1ZgCAzBAXAAHAAHss4BCFgIWAhYcAAcAAfAAXAAHAAHMsUBCFgQNlOEzfoTI8qPqAc4AA6AA+AAONA4ByBgIWAhYMEBcAAcAAfAAXAAHMgUByBgQdhMERZPrY0/tQJDYAgOgAPgADiQdQ5AwELAQsCCA+AAOAAOgAPgADiQKQ5AwIKwmSJs1p8YUX5EPcABcAAcAAfAgcY5AAELAQsBCw6AA+AAOAAOgAPgQKY4AAELwmaKsHhqbfypFRgCQ3AAHAAHwIGscwACFgIWAhYcAAfAAXAAHAAHwIFMcQACFoTNFGGz/sSI8iPqAQ6AA+AAOAAONM4BCFgIWAhYcAAcAAfAAXAAHAAHMsUBCFgQNlOExVNr40+twBAYggPgADgADmSdAxCwELAQsOAAOAAOgAPgADgADmSKA00VsLUSw+9AAAgAASAABIAAEAACQCBtBP4k7QyQPhAAAkAACAABIAAEgAAQaCYCELDNRBNpAQEgAASAABAAAkAACKSOQF0CNusDgtuh/NKi7VCeLJQhLcyQrj/JAThkE4cstF2UEROJwAFwYKkckH2T7RgCtsWDuqURlmrUbrsvLcyQbjaFG+yGDrHbfCDqC853Iwekr7cdQ8BCwLb9rERJ3GY2YqQLASv5lDU+yLLjGAIHHAAHOo0D0ifbjiFgIWC7R8BeeIMO/fpxOnxuwauzbBDNbPhIF8JY8iktPsg8cAzxAg6AA53GAek7bccQsBCwGRews/T2xFP0i7s20/DQJrp92x4aP1kx6vQBnXpxN90+0E+5ns00Oj0PASt4Lx1DMx0g0k1XyDfTVkgL4gccAAfajQOyD7EdQ8CKjrwVxpNGaEV+nZCHG7ML9OreW+mqnl7Kyf/PbKY95fc9kTp75hjtuX0drfR+76M//avd9O+VdojALtDFuUVfaF88S+Vjx6hUEv/H36SKwU0XDhfnfEGe3NYf0fTJabqg03elmzw9u+NHuhCwjXII99vbFnABLt3AAdmH2I4hYA2RkDYppBHSzqtT0ndidv4Qbb1yBeUu20D5Rw7Q4dJh2r/rDhq8rJc+tflJ+uMffkO3frHPE7crv/h9+vmzZTo3Fzo+Z7p1cWKBKm9MUunYH+nMxSSCRUWDH6b819bS1/e8SvMqr+kiDUsB7h1/ie7YP+3/XlVovk+lnVtp9+SMEXUO6xnhwcVpemnnzXTVUJGmqqbruL8ObOz4zlHlnbdp+r2PkpXXkp893bTK277pRuxqwQm/N247YAgMwYHl44D09bbjZRawCzQzvoX6e9ZSfvzskju0LBFMGiFL5V7Osrowm5t8iL7Ss4I+v+0wvR904Ofo0NYvUe7yL9HgNWrIwOfpO9t+R384NxfjlyvdixM7aW3PVbT56WlxzxydmThAo0/8K528oCOnXp7vU2n7tQmHJkQjxv35gzSj0tACduUXrqOhoSEa/t519MXLein3xX+gwzparPCXf6E9dP6f+UFNETs7/a/0i6Gr/Wh1LQE7/wrt/eubaFiVJ/H/Zho59E6AmbW8c8doZHUv5UT+YV2SOUprummVN+BVsrLZ6mItbxPSteWFc0u3E7ADduBAe3FA+k7bMQRsizsSaYRUG8vMQcqv6qXcqtto9PRsICrCPD+icuFGyvXcSIXy0qNhYXrpEd+F2cXSCF3Zs5qGi2+K+s3TVHGzL9I+czP94vA0zTpsXF+6caHq1z1+3pXu/FSRbr68l3Kf+T49dPgUnedosBawV24/Rhe9sp6n0vYNlOtZQ7c+PRXUzZ7uh3Si8Jf+EAmniP2Ipg4/SMOfWUG5nhV05fX30tNinLA1XRaasciwMVwj8nvUFlXTbbaATau8Du7Uw3srDk1It54y4Nr0/BOwBbbgQDockL7TdgwB2+KORBohVdKzgO3ppf6bi3R63iRYpwvYq+jm4huRV/Am3i5b2IVxXKj66cXP29NlvK+mH+9/OxClXhoxAXuJ5t94nDaqoRA/eo7Oao7a071ECxdP09jdX7OL2Itv09GHvq/HCX+evjMyTqcu+GOAGQ97uu/TqeP/Fh2XWzpC+7d/k3I9a+n2PS8av6nxuxNUfid8WLKmy0Kz2QJ20VZeMaa4dIyOjj9Cd33tqmC89MqBPI3qsdIKC/nH2DTjM610m1E2pGH6RXwHJ8CBduGA9J2244wJ2PNUPrCDhlVk0Yv8rKd84SCVxWvWhfkyFdb1UX/+WXq59CjlB/wxkLlVQzRy4BVjYswsTZnXFJ+hwh1rKbduN5Vjoq9xYksjpEoSIWBVJG9T8RTNRcQ6C6pOjcBeSyMlfyKXC2eXLdIRsG/T/h99nnKX/w3tfzcqIHkIQRiBvUTM49zVO2lCR2pd5fXqZxGxs2eOUmHzl7WwdUejq6Yb4QxHt2tjq8ok/wIbpCZgq7XNWXq79Cj92FuFopdyl32ZNv/yUEIhXy3dZL9ZcYjgmiydAEPcG30ABB7AAxzoSA5I32k7zo6AnZ+isZ+sD6InkVnnAzuoxCKWBezAtfTlyOtNJXrlWNsFqpR20GDsGi2OO0TA9t/xAP3q5jWWoQQuAbtAlfJzNDK0RmPdR4P53TRWPr9sDUQSV3bidqGZXGTVl2480uqXJX7enu6bNDq0mnKrR6jEQwfY6V54jQ498SQ9M/GOiBjHr7enK8SPFLGrr6HBL6iHtz76082/pqNnwsioxFAdyz/zt+j35Ng602UBu/pa+nYzx9YylsbnxXOT9NS2jToCrYZP3EOjk+/qoRoCu7pwiN4XxSj+W3J84/fWShu/AzNwABzoVA5I32k7zoiADcVm/9ADdGRad8aVMo3mlajtow2Fsh9h1AJWRR2H73+Jprwo6nkqF7d4YjWYOMPXrRqiHUfe8u8N0uvtmAisqu+500XatKqXgrp7nbxNwM7S1Pg9DlF/HY2UEs50N0REo41LElem5QtYJbB30WixqP/3UcHjxBoa3v6YOK9/F5OwqqcbHc+5sBgXqn5Z4uft6eoI7Kd/Sofel5PAHM6X+SkepOzpGvdLEduzkq7ZdojOmoLZsE+idL17mihgXQ+O1vNRWyQr7wd06tBDtFmvQpG7bB39eM8xeluvFCF5xMfWdNt4chiXG59GGzD4DXyADziQTQ5In2w7zoiAtYktbRCzoze/szPjV+paEMyVd9MG26v1ylEaUcMOhHBoJvmlEZqZbiwtXV9ftM7S6eJt1N8jRagFU667FPWLofhPC5NY2dlm+tOFmS9geThJ0s/aGxnYI7txoeqXO37eXl7GewONlGpHs3kM7BVbXwxWWLCna3FMUsQ6J3aF9yVOd7GJAvZrI7Rfrntb9TjB2FrBmdjav7f8ksbEpDUX36w4cMTYKqxdnFuK4A7t4SofzgMjcAAc6CYOSJ9sO86IgD1LY/m1lFu1hcZmjPGDi8ZvLgEbOc/Ld9nGf+r0OkrAqjGVp2hUDSUIhluwoAox8EW9iGYHoiB+bSsbkSSuzHfujYP0wPYRGqnnf2QfTdTYyMAe2X1MD6tQ4673icgun68tjGfLv6avq4lZ3/kNvVolEriw+A4dunuQcj3X0rbDYdTbjoNe3iuIQOtI82Pb9aoDatWDm2jkMY5Q+59PHHptCRsZNFHANn0S1yVamDtHJ579GX3HW22hl3Krv0l3Fyfp3RoRaOaUHd/2nRzG5cYnRA04AA50IgekT7YdQ8DGlpDqUAG7eInmvKEEfTS4/ShVFk1RyqJejhNmp1DtN74mvU9J3GY2Ule6aUV2Q2G6gq769n00WnojXErLe1iYo/NvHKW9d22glT0r6KrNRTolhK69vBwBdkUDHeeFgLSmu/AOTTzzpBDqSvjWGJ5R/B0dOvlBMFbami5HNEX+9drUmu78KXrqNj1hTUVLL7uGbvpfjxjlj4r40STlDR7ibPxe3slh9eKG6202xDnwAhxoVw5IX287zoiANcWWIFwksipmb5sRVOM6P9poEWvGdc02rDRCs9OOpBcZQsB4yaEEbxnrwFYTqdV+47TT+3RhNvfGi/TPxYNUKr9FlYRRNomRO910Irte3pX/oD28MoAntNbS9d9TmwVspOu9SVdKcK6gq/7qEfoDT0zUIspe3lk6Nb6rvii0iljvPU7nq6XLQrPZr8453WYLWE632eV1CNh2mBwmuYzj9PwPsAW24MDycED2ebbjjAjYJUziqiFgg2WK5HjPDp3E5e32xB1xMJTgHips/0ZkI4OsDSGIREpXD9JwfoQKdQha2SCa6aBqpjv3Lv3h6X+kH4s1SXlVjZVf+A5t3f1ibIknVT75l3p559+ksQd+Vqcw3kl7J2oMeeB0hYCuty5WHDjdeoaTbE9QXm43wWeTJocF6S1Px1Av5rgedgIHwIFWc0D6ettxmwhYx2tOtQg/b7dZ5zJasQlHschqKIpZPEQ+pQA2JoA1YkRphEbSqXmvNQLrN0B/KAFjHo6BXcjYJK75M7+n3Xf/kL4z8Nn48moJBG1atkie7hxVzrxOk8f8TQAmT75TNZKcPN36HG17pbtAF945SROlCZp843xbLXfV1MlhELDBUJOavmy5sZq/QJUPzLkX9bWxtq/jcmOM/LPTHlpoK9k32Y6zI2AVaPNvUak4kmgjg9oCVjkgy0YG+3b5mx90sIBV9fZXJVAiVghYhUeGltEKOwVfCP7hxf30eGGE8t//C/riZSzQ9ScL2ieO0ZQeVyobRJiW2THN04UP52POZXb6P+jF49PBRCh5f7J0zXzM7wt04Y0X6dd7jtC72mEkSnfuI7oQG07xEU1NHKHj0xdi9VDlln+yHo0eV0t39swEjY7cTjd88Q56+gzjO0N/2PND+tPAdv00ePvjNJloKIWJX/3fneVNZXJY/eVr1B7Zup+HLUn/ZMNMDy+T/rppHaxaE7tI+YGNbb/dtmlb99s0G4bdfK7K8ETFIx3U6R96hF42/JCJOb43n0fSJ9uOl1nANr/CDZNIR2qDyG/TnKFfV2mEhstarWxVIrBevjyUICJgVRmVqC9mYiODqvh9+B69WT5GY8Vf08+33kY3BONLa68W4KerBOQheuhHG+jz/BYgwJudXh/96V/9I/3L1EcRYVjVxhfP0L8/8Y901y030fBf/Zi2PfICnTQd44U36FDhDhpUQk6MFa2a7qJ6tb2Lbh8cpPz42Uh5guEyamLTzn8JBDzjVz1dVxtdeqR0/swL9NPBfh01Z3vM09nxrfQ5bwzrZ2nwW9/RY4JX0Od+vJ/eXgjLYS3v3HF66Jb7aX+C5bK43uanNd1lmRwW1tUsY1d993yYbVUUgU+Sa4J2K+5LdI7beS0RXW+66V8PAZsU42o29gM9V0K8RvuTRG0nKf7Vr5M+2XbctQKWG/hgvii2ouU1T2s4zQYMKI3QVZ1RSzH7kM68cozGnvoNPWgOMbjsh0HEz22LRbpQ/g3dxMsxXfMQTUa28d4syAAAIABJREFUFf6ATuy9k766eoUnwlYObqMxIWKd6V78I+296WpjuIOasPUbOnFBbW5gzmq/hm7aNVF9spWH6/t0Ys9mvdvUSvrKLyej2wbPlmnvbevpSk8c9tNX734+ImKd5V28RM2PlJ6n0vYNlOv5PH1n2z56qfyOH8We/yPt+foVlOsZpK3j0/7QgQsn6Ynbv0S5nuto50S4LbC1vDyJK8GGBa52VzXdFk0Oc5WtO89rcREs/Wd2djpKu+o2Gj3t3mlu6dhVEzdmWdrrO/dvwQY/DfjfpePXXpigHtmzh/TJtuOuFbDBuqi2jsnpMBsngDQCGlQyPGtjtkAXzp2iP7z4O9q9/W/o20G0VQ0fWEFXDv6A7n7wMXr2cJmmKnPB06Qz3YsvU+EGJaaupuGdB2jynQ+DeyI2u3CKxrZ9kz7Vs4I+d9c4ndWdhD3dBZo5dI8XYVw5eBc9MnaYSoefpV0/Wkcre9bQrU9NitfnKrK7k54tn4uMAbWne4l4fdncZ26mnWMv05kPbeP1VET5ebr3+tWU67mG7ho/E9TJlW5akdKdV6+g3J8/RJNiiTC/w43vgPdh6Wf0BbnTnmvIw8I7VNqto9bK5lW2jI3YUHTsVhxaNjksWVtwlb1Tz/u8sKwW49nNX/Iw+rbsPJXHd/vDwDzfvp7yDx/VOzJqjIO3bM/Sy6VHw2tXDdHIgVeoItKW8yLCfFQej4u3VL2Ui9yr8tHid9UWOnDi9/Swtzug8kdqh8DnRNBEl6nyCo3tk8Pjeql/aAcdSLKFtxpa93Be76Do70B5+oTaqMcMxKghEQf1ToWqLGoXw0epxDtbirYQ5ZOuy7pdVJp8RA/hE5viqLIXOP9eyg3k6eGS3t0ykmYC26iNc2rZL3i7+Dyd9oZ4qC2zFV4jNBrLt1adHQ8pljoVxpkbvs0Cbh44LvCvw24RbDQPcC7olxQHa/11r4BVRDFJ6jmXYoIGvXSySYNEncTS0+z0dJyYKfs9upPuGhrU0UV/vOvKL3yDfnj3A/Tos0foxPT7EREosXKlOzf5EH3FEKXyvsgxi93L/4b2v+sLR3u6F2jylzfENidYeP9F2vrpXvrUV66lr6ghA5/ZSPc+ZV98v3q6UVEaKaNwiix2P/Wj52oI7pQipdNFGu7ppSu3HxN2maOp4mZa2bOSvrxzgj4S5V2wXG/HQbWfBaqcPEgP3qLXg73sy7T5l4esKzrY8HGn21jbTCtdWx0675xNpGp7eEJGCKnF8/RyYRP1x4ISfTT4k+dDEcsCduBa+nLsWhbLej1w8bsvYOX8Ad/fhCJ3DW0qntJvP1jAXkODf+YLrPA6MTlZcT0YzmWmp4RxjeiydXJzHw0ObaTBiIBdoMoJFp9GPgP30FhVEavrMrCRhtUulQoTLldlkgpDa4y3Sir99bRlfEq8CXLhxuuSK5smtB8L2KE76U4uT2AnyQde+9yor7o2CFJZBKyzTmtouDCpH3AukS9gV9PgwNp4/a2bLjXmRzqvbdfGQ/pO23F3C1jZUbboWBqhGwm5lDq7MAuW0bpsLd3ww3vowb1jda0Ja0+Xd5v6Em09dC7yNGgv+yyd3PNdT5iOlPzX3PZ0ecMBHvPJjfdNGh1SUdEVdNXQg/TSdHQ8rczTnq6+/9M/pUPvq2EInK7jc+FV2nNDP+VWj1BJT/aypjt3nFKJlFoE6QLvptcTx3z+5KP0dUPwWssr6x2ZdKWjsROnaGr6LeP/DJ0T0eqa6co86jhOK92atq6jjO2bFg8TMHdh1MJDTN7iKH7/0AN0hAXZ/Ft05P4h6u9hYSrWClcBi/tf0sKWh49JcWkRNyx+ZR7BJjHyDQLfqyJyXB6eFNYX2VXSL7csi2q7LPjMKGq0XcfrLPKQAlaXW0WKdxzh6OgsTR15wIuohtHlaPo+L7guxoMAR5kjOF6iuemXaIcStVLEadGZG9hCozqqbF4Xr4s/cTtmP07LiyDzEEBRl5uLdNob8sUPIespXyz7wjPGB64bj3PmyYMqOs1pC0xZuCube9vR+9H3ANNgKU7Bt45ohzZepH9O+k7bMQRsi8kljdC+nUb6xKyn7i7MAgGrXhkPDNFdOx+nsYlT9K4QJdXysafLAvZaYkFaLY2Fxfj19nRrCNjLb6XRqXB4gy1Pe7pawApBars3PBe/3pquVWg2IVL60TEa+R8rKHfDo3SSJ2ZxhyQ7PK9dfkiv7rmJVvZcRZufng7EubW8lnasNhsYvfubkei8jILlelbTcPHN6uliCEGAT8ihFvsHT3ytFdFNFqHynBYiMQ7xtX1iScYyFdb1UWylGuZhIIpNcSPrrUTNC3qnN95O2iZgWRjxvSyqzPPqd/X6/Ck/zWA4QTUBy3U2o7ShCOMxsL7YsokqTsN8QODyqk8HDizmY5NcWdxxfvHyxLlUpRxmPmynIIrKZTXKydcF9uTr5KdxDz9Mx9LmOoX28DENv/t1SlJXmT+O41wIMZG+3nYMAWvp+KoB2uhv0giNptUt9zsxm3uPXj38THzc6+r1tPnuB2nv+HF67Vy9Ec1L5I+7XE0b975G8zX5cY4ObVUTjb5Le076E0ns5a0hYBMIUHu6FSptX0e5yzbR3jcSTGTRQxakgLSmaxWw3Pk2EimdocPbrvXHF488SYeOvkCP6a1zP7f1EIWbblygqcO/8ifSGeLeWt6YnRbowtQR2nO7GmNseYXonUsgjHlymDMNW9oJhHGsvKHT7pZ2nbyeWmQIIeKJh4hYZW7a7KHP8f0cjeTvbIvYeVPcKBuJaJyNE0GatnvV/bbzYfQ3+oClym0KJMkTXecIDv7vUXHFoqoKNrHVaGQ+tjJfogUWiDYcvHNcdr6fBa1Mm4/rsJ/ONx415nr6+fgYyIg65yU/uWz6gcIUy8wN9enly3WKC1rmcxR7mReOGaOkn9LX244hYCVBW3AsjZDUiN1+XSLM5t6nqfLv6endI5T/1v8UouWz9NVbfkoP7j1IE8bC+M50PzhM29asoJV//nM6et42ISp0RLOnfks3Xd5LuT/7BU3M+uft6aYlYBfp/cP30ed7+mn9yBEhAMMyhvz5iF7fu5k+ZYw1tZY3xUhpdHKY7lSvzNPTeiWHufJj9L1gIt7VdPPeP9KsaJvW8orfF9RSZY//lG7wVolYQVd9+2eJlteyprvwDk0886SOtBUTfv6ODp38IIhcWtOV5cVxgFXIVYO/nnjgqOUMlbZfF0ZUPfzqEEAxoarzip03xI3Khzd76VlP+cI+nw9PHqOp9w5SflWSCKyZpthQZyBPhaLPsSdLU3RufAv1Q8CG40v54aCmgPV5AgFrtKEM+hnpO23HELAtNqo0gtNZt7hM7V6O+jGbo/NvTNKhp3fTth9+Q2xqoFYk+Ac6dK7aZCvV6C/Qq3tvpavUuNRv30ejpddiwxIuVt6kif0P0uYvqkkNX6I79k8H0Vp7eVnAio7P66z0xhlqFvO+uEB64tBrwWYJ9nQv0UKwPJdamqpIR0+eC+7xbavwOE77H7zV3yTgyrto/5lwuII93XQjpWp5rid2bqHNQ5vo9m3/TIfF2N9gaMjqb9LdT5wIlhFjntrLq+w2R+9O/o7u/fbn/U6vziW13Ok21hGklS7j0R2fSqBeQ94r8YiYZdtoYWiJRsbwiQlVnUbsfFxsznii0hJJ1KIqHJZg3muUM4h4uqKoHE0MI36xenA0V4zL9K+J3+uLOUu5E/U1jrpovOKRUK4rf8bL465LtaEMOr0Y1pyPwQHndXy9+jTrpu2x5CEE7shsvM6yHDi24SN9p+040wI2i6F6aQSbwXAu3pCXjtkcVaZfoaNP/Zxu8oSmivaFk6iqpnvxNI3d/bVIJHfwW9+j4aEhGvraWnH+arpp939ERJY9XRaw1V7jWX5LuJHB7NTzdHewOUAv5VZfS98eGqLhoY16QwCd9md+QLsnZyIRL3t5L1HqkVJX51l5k45PuscyW8u78Da9tPP7ehcvfxmyejc1sKfrR2Dlg0S9bdSarqvuOB/hpsTa8/frdtGRA1uon6NxAi/uD6JLQ/HkHjHbPSZUtc+JnTfFTShOwlUN1JCC58IltYJyxe/162Ke5+9y1v55Kh/YoZerqiZguTyOiWIyest1M5a4CiZSWQRbiD2XkSPg7KP5vLFUWTBRSqwIwGJSTOJaCFZQkK/8zaW9LPbjtCKTx8JhGKGg5qi8mMQldpv0r+M6cN1CsW2dxBU8eDD2cfswD3n8cYgj44bPpJhI32k7hoAVDjApqI1cJ43QSDrtcG+rGmpizHj3LdsGBj29tPILf0n5kWeo7G0aEF1jzo5nhU6O/5q2RoYksMi8iq6//Rf0xMSZyOttlY78C9OdpVPju2hk+0h9/3uPB+LYnq5whpWTNF7YaqyDq8u7+i/oxzufon8/Ex8nWy3ddCKlosw1298HdOrFx2jP4XB3MWt5eayqitoW7cuQhbaw5181XfEgodKZf+c4PVOMDhVwpW9Nt2a97WV05dEV5z0Rdg0NDlwb323Ow9MfWhAfRyqWfVLXsZgLxKbGOnaexY1qQ3qJrGAIAfsB4zOIAPO9LIzYnuZ5MYTAMZY0FGSchvy01XkNDedviy+jVdqh14o1ysx1c3LSLLPIvwoe/cFqAOp6XlXBzLuXwutsddHXyyizFrD9G4fou2rYhsRNXidXh5DXqOPgOkvd6lpGCwI2Td8jfaftGALW2WhFI23iNdIIaRq+FWkvu4C9eJZOvLifHi+MUP77fyGGCmintnqQhu/aSY8++xL94TXztbpLaNrsPkeVM6/T5LFjVCodo9Lk6/S22BDBxDotGydOd+59evvkf/plLU3Q5Ml3qKKXzPLLOkeVSji5LXG6ZjtYSqRUpxEK4yG66Uf30SPjJ4P1Ff0yqo0XXqSCt9FDgklRc/9Bu//2V3TojXDsqWmXWt+tOLAwNgSsP8whWi5X+tZ0TSzx3Rl5DXHV0bFAJNraqrkQvto4wFjbOyZUdTq280LMsJAMopZaFKkF9H87fpxKhRspF0ToLMLIs7HtPEcZWYypMj9OYyd+b18tweSK2sigyJsg1LORgWvxfxNXW5nFNeZ66mo4VPFYuO5uUF7TNmo41UFjUwfzGov9WMDm5UYGKnK7m8ZiGz+oCLm5eYO8zlE3s05qfLJ1IwMI2LB9Ck4ENm/snPSdtuPlEbAWcsR27lDXBEuJ+A3b3JkkFFDH6bRez87f6cRwWB6YNiI7diFJUr4lGkgaIU3DtyLtEP+yWLC6McLayu3CLBgryU/X3nqw99Ku4sFE68G60rWVwX1ugSpvTFLp2B/pjN5ZqjnpxnFsON0L03T8uUdo2y3r6UohyKqnO0fnTv4bjT39JI0+fZBKr+itXxPw35Xu7MnH6Wbeppdt13M13bTnZX/s7sW3qbTnb2hQbeygIudf3Ey7JsJhD6503TZSWC7QhXdO0oQS9MZkPr7Pmi4EbAJhGecqY4pPYNN0DgQC9mCNSavAvunYJ/D7zcxT+mTbcesFrHPXETFexnmNDP2HY1D8XUf46VV/Rsb01LELiTNvUb4GjCiNULehbRECVRbb+cordGC7WsCb8Yg/QfpLwrxAv5XXebuRWbY6TLxdoRy/pfK2PWXX51hcmF2ceIi+NZSnkd2/o0NVxky6cHanu5PWGmuPqglCZyYO0OgT/0on9RAEP10e21prbO2HVN57lzeGVo2jdf3f9KO7aeSX++hfjG1kVV7yz1Wn+PkP6Uz5MI3uvIOu92bl+3xYecsz9LbmsTNdNQ5427eMdVSvohu2jdOU2AY2nqdvX3u679KhrV+mXE8/fTX/CI0dLtHh/bvo9oF+yl1+Oz316r/Rns28k9Y1dNPP99OJ98IJZ7VwUJHd0ZHb6YYv3kFPn5nX4mtGbNOr6t9Pg7c/TpOV6AoT1vJCwELANuDvXW0D5+vrAyJ4QcB2TZuUPtl23GIBaxsgHb4+CV7ReDtc1N6ZxI8AGjthBAPIxbZ+LPBq7kKSrHyRxlSnc5NGqDsdrketsVtOER6dhTp3ukibzDFE/FpMjl8KBttrMexdY9mu0HqdvifyQFGf80qG2Txd+JAFS5j+7PR/0IvHp41Z+dUE1iWyvx6OC1XffvHz9vLydRLDasdJJ4eFdZV8ulh5g0pP/8oYv/tZ+urmEXps/DidEkMg7OWdo9PFW+lTytZqXd2t/0Aj2+7U42uvoK8XXo6N/ZX5q2P5F/w2P0m/vGYl5dbcR4c/4J3DFun9Qz+lK3quoGsH1BJoavWHf6CnJt8V282G9bSmq8alnnmBfhpMZOMHink6O76VPudx9rM0+K3v6EltK+hzP95Pb/NmCq7yQsB2TWcZcLROn477wrbZEiwgYLumTUpfbztusYDlWYHmwHZXA6i+M4nzFbYWelFBHBVvfkPT41+CMVX1ls9Vbvd5aYS6G3tCAcu4DG4/GowrnJt+nrYMiN1oePmQiKhX0dxTNHqz2ts6tBE/KFi3RAxmuoaTEcLr1LqJZRrNr6+xILcbL4WR/ItjpsZKHqKHfrSBPh/bEYbHN6lZ6f9I/6LXGeU0XOmmI2D1UAM1hrbK/+Hx39Ej/2uTP5v+sm/QzonzgbNylZfro5b/mjp+gB7Ztpm+KqKt6jV8/y2/oT+882GQVniPC99pevqWqyh3+WbaeyocL3vxzHOUv3IF5a55iCa97RrdtrOW1yEIF/TGCbmeq2l4579WjfBa0108T6XtGyjXo5YS20cvlfVQh/k/0p6vX0G5nkHaOj7tC+ILJ+mJ29XmE9fRzgl/+1+Fh/wL8HGU184ROxbWdCGSrFwMcAc+wMfFAQjYruGG9J2249YKWBZggWC0O3xvS73iFseMyXDQtC+sbMJUC1EvUslR1WrRLi3WEpfPVe7a56UR6nbWXL4aEVgWnDm9MPaTJd772lE+NeZXL6AdDidgAcsiv9Z2hSwW+T6Rl6vcLgdlnHdjtkgXyr/xd2tSEbaYqPqATuy9MxBzKwe30ZgQsa507eKEI6gc2eP6xc+70k1u7zBqyA9h6l75J9O6+N5Jeqn4C/rx164KZuSu/MJ3aOtDv6PD//JL+nZPL125/Zg1mulMl4Xbtx+nUxF76J3HLvuheEXPWEQ/reXldMUYXK8uWsB+6qYinRZRUVlPPrane5x2Xr2Ccn/+EE2K4Q1BWzDajL/bWuhLauIgFpkfLRb1sBs1cWSXZXOD6OoE1vJGMI3ixvXEJ3ABB8CBbuaA9J224zYUsGEkjwWY6jBsO5NAwOrGHROItuVILLM5g+ioTdyzENUPA5aHDh9/FgHu6xZ4f2lLGkkapyRu5PqLL1PhBhVdU1G7AzTpiDAuXDhFY9u+SZ/qWUGfu2uczmrx4Ep3+QUsb1vYS7mrd9KEXkHAXl4W0PpV/7bd9HTpDTrPqw5Yt4SNdgrWdF1Cc5HzM4V8NE1lJ/kX2M2VboJychrWdK33z9FUcTOtNHYe89KxXG9Nl8vrDUGwtRPbuejqBNZ0IWC7JorEvMVn3EcAE2BSjQPSd9qOWytgWciI19PxwruEEEdSWTCFk7hiCwbrtek4euUWuiZ5dN5Vy2feU993aYR43WukFROq+nrreTX8okgF7/W96GSDsagscmUU6VkqTU/RWH6tGELgsoeJv/u6tATs3ORD9BVDlDoxZbF7+d/Q/ner78TVFgKWhdPqESolFLDeOrc7n6TS1IVQHFiEmomRlZOcvxkpzZSA5fb8Jdp66FyIiRove/JR+roRmbbiMP8mjT3ws/rW7t2+k/Y2vGpCDV8AARyxp8lpfAd/wIHsc0D6ZNtxiwVsKELDXS4uEY/PzHkRugtU9tbTq70zSfB6UI7jDKKKYmgBC7yau5AkKV905nK9jUQaod57rasNqI5MjwkKtzE0iauWEOPVBjQuznFE3OlzBLZdhxDMe9E1tY2rKU7suM7SyT3fpVzPtTRS8sc9umzRFgL23efo9sujwyLs5V2gyskX6bHttwZDJXI9n6Wv3nIvPfLccTpV3kvDhlAz8bGmm7aANV7Jjxby3pAhb01NPZxFvXnx/xO8kv/oGI38jxWUu+FROslDELhdxCL/H9Kre26ilcZKE1YcmiAU00rXtCO+m34P38EJcCDLHJC+03bcYgErJwmJqKD3eo5XDRBDCByv7aKRVd51JJpeuLuHInC1NDlfTfRgElM0vWAnlkSC0d1opBHqJhYL8R4h7gPB3ku+gGURbq7icJ5eLmyi/h4tYDmtgXtobFrvzhRZeosFLEdaa21XGGLcmklcLGBDQVodz/j1Llv4AlZGppWQekxvF6mWBdsnxj3y+fCVuivd6uWTnJmhPzz0PW/Iw+e3Hab3tYiqla595QGfx1fkD9A7PKzAEGXWdFnAmkLTiYPCKIHQ5HQdbTuyq05wTZJX8jN0eNu1/nCSkSfp0NEX6LG7NngrGnxu6yGxXuQFmjr8K3/c9OW30uhUuESXFQcDq+Q2DO2ZVrpLKQvuCe0CLIAFONDeHJC+03bcegGrOgTLRgHRXS7CpbX8Ds2+M0k4NOAklYNJX+payzqmSsRGduSosgtJrfJxZMeYGJKkMUgjJLk+eo19O77+oTvpzoE+LWCrPSQk3LbPEw4igr3Iww2kqOcHh3BIR7i3tbxOHwdDF+pvMC7M/Ik4q2nj3tdovqbQ0JOPer5Le076gt2Vri9gLXUIBJXtt1oCVq8jG0QVOboY/dxb+DltVRsNqLwu+0v65WSNWfLWeqvNByxrv6qtdHcWwxn6+l4rDmkJzRRfyUeX0dI2ujJPT+uJe3Plx+h7X+jTE92uppv3/jGyFJgVByu+9XE4rXSjvqG+MuFe4AUOgAPtzgHpO23HyyNgm9AptDvwrvJJI7iuqXo+sm2gihIWqTzzn/EtByPRVNWZWzYUCNbM1Z292gJw3wv0cmkXbQiWx9KNPJJvle0KI9c58q3T/k7MPjhM29asoJV//nM6er760I7ZU7+lm9Qr+T/7BU3M+nVypTv3xkF6YPtIfeMeR/bRhF4Y354uT37SWFcVw2pC1rfo3vHTjQsstfvW+GM0slmLYi/fFXRVfpze1XawljdFoVmV3wm4YS2vvi/conYT3b7tn+nwtFgCrDTiPxis/ibd/cQJOm/kVS3dRsqcVrqNlAn3QryAA+BAu3NA+k7bMQSs0YmlbVBphLTz6pT03ZhdoFf33kpXeQvf30ejpdfo3Q+jQvZi5U2a2P8gbf6iirx9ie7YPx1Ea93pNubY7OnO0qnxXbVF8S8fpdH9R+hVY/cpZUv5V79t5+j8G8fo6Yf+P38zAjE5q7F03Vi1XbqVN+l4lR3b2q68LfZN9XPKbXukBWzAAXCgUQ5In2w7hoBtcSchjdCocbvl/qqYqe1O7/4arQwimmq3pe95W7UOfW2tON/Yzlb1YF21vA3wrWnpzr1Hr518N4juNi1do25I1+/A0sKhHk7iWogJcAAcyBoHpO+0HUPAGp1u2gaWRkg7r05JvzZmFTo5/mtj21R+VX8VXX/7L+iJiTOBYGNcaqe7NIeHdNMVbsB3abxk3uMT+IED4EAWOCB9ve0YAhYCtu3XU5TErd7o5qhy5nWaPKa3a518nd6uhLPMzXuTp1ufs0O6Pl7AIV0cTD7je33tFHgBL3CgvTkg+xDbMQQsBGwHCdj6GqNsEM10ZEjXtwNwSBeHZnIWadXnO4AX8AIH0ueA7ENsxxCwELAQsERNxUA2tGY6OaSbriDMGr7N5BbSSr8zBsbAGByojwPSJ9uOIWAhYJsq3tJooJK4zUwf6UIQSj5ljQ+y7Diur2MEXsALHGh/DkifbDuuS8DaEsA5IAAEgAAQAAJAAAgAASDQSgQgYFuJNvICAkAACAABIAAEgAAQaBgBCNiGIUQCQAAIAAEgAASAABAAAq1EoC4BizEj7T9mBDaCjcCB9uKAdOiwTXvZBvaAPcCB9uWA9J22YwjYFk/iQmNp38YC28A2aXBAOt400kea4C04AA50Igek77QdQ8BCwLb9KgSd2DBRp+7pcKTjhd27x+6wNWwNDjTGAek7bccQsBCwELDgADiQIgek40WH1liHBvyAHzjQPRyQvtN2DAGbYseFhtY9DQ22hq1dHJCO13UNzoM/4AA4AA5EOSB9p+0YAhYCFtE3cAAcSJED0vGig4p2UMADeIAD4ICLA9J32o4hYFPsuFxGwXk0WHCgezggHS/s3j12h61ha3CgMQ5I32k7hoCFgEX0DRwAB1LkgHS86NAa69CAH/ADB7qHA9J32o4hYFPsuNDQuqehwdawtYsD0vG6rsF58AccAAfAgSgHpO+0HUPAQsAi+gYOgAMpckA6XnRQ0Q4KeAAPcAAccHFA+k7bMQRsih2Xyyg4jwYLDnQPB6Tjhd27x+6wNWwNDjTGAek7bccQsBCwiL6BA+BAihyQjhcdWmMdGvADfuBA93BA+k7bMQRsih0XGlr3NDTYGrZ2cUA6Xtc1OA/+gAPgADgQ5YD0nbZjCFgIWETfwAFwIEUOSMeLDiraQQEP4AEOgAMuDkjfaTuGgE2x43IZBefRYMGB7uGAdLywe/fYHbaGrcGBxjggfaftGAIWAhbRN3AAHEiRA9LxokNrrEMDfsAPHOgeDkjfaTuGgE2x40JD656G1nG2nr9AlQ8W2l7YzlXep/fbvA1Lx9txPGlz7IE3fDA4kF0OSN9pO86+gK28QmP7Rmh4VS/levz//qER+u34K1TpFOc6X6bCuj7KrdtN5fnsknE5HclceTdt6OmjDYUyzbWKF7XsVjlKIwN91D/0CL1caaZYPEtj+bWUW7WFxmbqTXeBKuUi5Qc2UqH8URsL2PNULm6hwQy0Cel4l7MNdHPeWXjQyYZ95qlSaWe/0N79I3hYn32k77QdZ1vAagHAwjX62UeDP3mepjpB8NUSQq0SZBnOp/0E7CxbYfS7AAAgAElEQVSdLt5GVzZdvCoH0YiA/YjKhRsp13NjewvYDLUJ6XizIVLq62TcddI81IGFqH/uJRVoGC29lfIDZVYedFrU7hppN5Uyjeava20QYFHjUuVhfFl8e919YVZ42Ky235x0pO+0HWdYwHKDX0PD25+jsohgzU0fpYfz6ynXs5by42fbOIqU0MiNOJ26G1rCMmUs3Ww4uWZhDwHrFlXNwjh5OtLxtlO50i9LdQHrC9o1tKl4Kj0Rmxnfyf1Zyg+ODeCxPD60QwRsA7in306T+7JWl0X6TttxhgVsjU565iDlV/VSf/4gzXhiy+UgzPOiwbw3RUfuH6J+FUFYNUQ7jqhoAb9i7fOGLPQPPUBHpmejItk6rGEHHSifj15nFYGzNFV6lPIDIv3Txy1DCFQ5DlLBE+pq6EQfDeYfpZJZFmsel2hBlbGQp0GOjgzk6eFYNOQ8lQ/sEMMz1lO+cDD6sOC9mlcPClM0deQBfe0aGr7/JT/67T21q4cJiaFuMIGNnqfT3mtrrrMZmdE2WbeLSpOP6Dyuo5HSjI9n5RU6sF3bSeUzkKeCMYQkdL7H6bQs5/ZiHLPE9qthA5fTsmAfLW/IwQMnfq8fxpSN4w9rdocSbxt+/ddS/sBxKj0c2r1/SPIyLjjC9lOjrrKNxez0lh/VXbWFktXnPJXHdwdtINeznvIPHw3fpmjehBG99n5QlY7Xbq/27UAaK2+ch2F6wo+mOQzE1QZdfnHZzpv9UEqcaACP0Ie2cBhWp0RgG8A9bDMpcWLZOF+7PtJ32o4zLGC5k99EhRNJhKHLQZjnOd2NlL9DCy8WeaoDntxHm8R4W68TlQ54/hSN3rwmGI8bdrJKwN1Go6cNsRshzyxNjd8TikrOd2AjDStBG+SzQJUTLOTCsb9eXgP30FgtEessoxCF81M09hOj/kF5dlBJR7x9p7aGhvO3GeVWYumoBQsRYWABO3Qn3akFe4iXKAs7McZBlUNjOTf9PG2J3asF/fajwThodr6DQxuNcirBG9ZnwYlNmCc7lLnTxTgXVNk4PZvTqkxSYcjGjzU0XJjU5WUOXkODf+aL+hAX+VDmcgBx4eDXfzUNDqyNczN4PecSsEn5pssds9N5LWCT1Oc8vVzY5D80Mt+8TzEkCAI2wYOwixutPB/nIbcd/9Phe2PDV8zrLpHP5xoPZFV5kuCBzGu/q2lD4fc0yZzktu0FMp6jkaAtqwDCbhpLFKS4ROFbQn6wf41etg7dqfEwF+k/TNsmDYaoPB4XdfHLNHKA55Es0Mz4lmibDHyGHwypFUBYWDJe7Avd4/nZtwfzG6razcDeCwrsowOF26nf5J0l0GAGeVrCw6o2Nm3eWd9tolWey7CAVQ1HiIFVQzSyr0ijxRciEcLQYcadYHUnqsZocXRVCsv1lC+WfaER5B+KMp/QIgLpkc8f79hfaxIRC54g2qvqqMYdaSHJAtZ23eJsEAENo2Y2MrMzUg63qLEy712gSmmHJ/RCDGRZwslQfn3ZCfvj2UJRKfNgYRLeuxB0MPI6UZabi3TaG8PMthMixsN1hkrbr/MjkxzxjUTITbtEy7kw/5aOsIevMZPbj8We4EOQno4Isp3Ybos27EUkKnjA4fpKDsrr3M7c53RcONjsFHJLRjA57xC7Ba6H5KWVb3yvaSc+X7s+XM4I70xcle25TAG2Nq63xznpcEN/1B5lS7c8cR5G82NeMNfM74xR/LzPkxoPZIF/4Yd85nnCBzKPY6tJPvT2ez5J9gecNn/KB28uf/Qz9I98j/q8loaHrjXGnrPPlNepY7N9RdP3MXaUkR8ug3bDfZOZh/rOfpH9lrhGC1h7XXQZZQDB9bAvhbBVqGnbV7nO54LoV5x2U32YP3FWBgTCY+ahoS0iD9Lracv4VDDkpSU8tOJis3nnnZO+03acbQHrGVY9PT5Fo/J1uBcFM1+Jx52g39DN8+Z3TQrtDKPi0HGtLFexSKPBKgmikVlI6TcGdhqCjOyItdPxr2NnLK7jSGWVxh5M8DGfNiPlqVIvQzjEnIeXjr3jil3L9QqiGlwXM3/zu77OKIvsHM28zO/BtTqNqF1V+ppXLvtx2YOOgMsuPmPl07jE6ssRJeaHo748Oauq7VT+cfzt9eeOifNV98bz9u9Nwrf4vfY2xhjpcgb10ffb+GvaKYYtp9l+n9LxBryLtLf2K3NzyhnnYZhu+KAavllKzh+fk8YDafCwL7hq4wmfq/VAxtf1REVLIIIi9+tJOqrvqeYTgvYlgxzi3qAtsE+QD33qwY0fukUdbVzisssyBviIMurrIg+Mi5coeLsk6hL3IUkDCGxXKe5ZYNeoB+Nl8wm63rFycd1Nu3FaKuoaBDxs2HN55XUqcvsS7VARd1GWlvDQZt8uOSd9p+24AwSs4fzn36LSk/v02FApBpmU4inLI4F53vyu008sYGWDEE+s+jVo8JojRkAWE5YGzQ3ScyZ8nZm2/G7WUWDEaYlGGHYqfF21jif6W8x5ePWKXsPpx661YqrKwHVkLOqxid1eft6cHtdTfeqyBo46mf3YccWFr0ibsea09XfrPR4WLCQd9Q0ccBX7OvCPYa/5Fz9v5s22kPwyj7k85r2MRdLz2haRiIeRl4FldbHA+S/vp3S83Ba64zOBPXukqEnKExZ33F7YvsxVcd5sg0qcBeP2zQm+On/2jZZ7ld3ibYbzd5Wffw/fHPiRXHGe/VAgYI2yyP6imh+JtGvZ/+m8nA/e6g3PCzSqHtiLj4XDCbi92ertwCeOEeOi3rTtotHis/F5B7J+keMqOETqWt3mXntj3II3e4w/C3Htx/i6YP4MX8e2D/sROxeazMMIHmFZusGHSN9pO+48AcvG5rGMQQPkRsSdLRPBPG9+19dZxZZ5bfjq3ZtI5DmDIj1ZmqJz3hgi0ci4nMEnkz5sHAFBI46CrzM69kinb9aR6xo6UPkUGeQTlMUuQP3ror/ZG3D0Gk4/dq0VU1VWriPXw8S5mk3sv/l5W7DljsPjSXL7+enVGI8asVuIPQQs89G0awLBw+3ZxDbgLqfdPp/S8XJb6I7Pavb0xcyTkYmjJh/YhvHzMV+i7R87H+MJ+5YE/jN2ryoP32/zJdV+03Vx+jyzjtWw02XnthDjfpVyxOokhiZF+pB4HjFsnXW5RDw8LPB1tlf3athf8Vg4OTNWD4WZxoUfKizXxMoVq6PE3tYHM166v9H1CocWmFwJ04jlnQYPLXXuDv9xSbpO63FmBayLOKFhTRFlOghNahYw5pNv8F2S3xQsZppmnpwHN5CQ+GE5+Rp+uqv91OzX3eZAw7Rs6fvn2DGyOLTdY9ZLXGM4B7sd7DjErmVHEXPEptNylMcoi6yzmZf5PbiWNxPwnrbt5Q47LWE/Z9ndWAXR3iUPIXDgEHNw8Xq46h8/H8/DvyYJ3+L3+jgnPa+vq9JZBXarYvvgmhguwjYt/E163nYrW7rlifOwen5JecK+UrRHbc8Yn2M8YV9sihL5XfvG2L2KP3y/rT1U+01zzyn6zLpr7Gyiks/F/Cbzu0o5zDoFwlKtMLPPj8A+eYym3vNX8ZFvOGLYOutiEbDKPmpSVHGXWF1EYd5Hg2KsbJwfJi5cx/AzVi6zjtzWvfLGORPaFAI2jn+I83L8Jn2n7TizAjaYxKGW2Ck8Y7ySCJd/Cp4A+UkuMgBevi5mQedoMNbGal7L3+WYqbAsqrG6hxCEEbpwyS45cSo+bklFeeWsyGCMjkUgheRj5yYnTqnxPXo2vyce5uqcxGXWy95xxRyNxtRbHsoyJiluO7YRNyp+9SPHKsmIQni9n3etMXP12I87GDGJS01s0qtIeGWPOVIb9rbycjnC8vv2c51nPPgzjn8Me1eHH7QTkTfXoybfXOVLfp7LGV0SjsdLis6Oy+TsxBmL5f+Ujjdsh8tfrvTLEudh9TxdPOG2FnKSeWL609h5C0/8a2wC1LCJ5V5V/lgeLJBsbSf4Taet02xoCIGZpuW7X8ZawRD2RxYs2DeL9hWrtwOf6hgxxmLlg6oPrFXK6NWbJ6GJOrjKxdjHhgYYvHNex2UPP2OYaFvEzlvK5F8jym2xY/X2EpajU6+TvtN2nF0Bq2abu5aS4ifUYFa3b+hgYDr/rj5X8XJZ7BwNMjOpEglY8Qpa5iGOQ1FmI5/9/n5eZipwJvbr/FceFqfFdeBPHl4hyhW7t65ltBoTsP0bh+i75tJkEds5bKI6ExbesboIsRN0Orblvnop7Eyq4epHaKT9rHxS5eCyW5xWZOWMSJkty2iZbwGSdJCejePCIeZQNRfi5xlrVV/mUjVc+BrFZ76X2xJzvJ7z/FAiI2L6mHFVZWdsJd7M7zb7lI63Uzsae73iPLRfZ/JEzrK3BRncIjLGZ+ZJ4DsFd2o9kNnuVdziqKWcIKUmfaqtjRUfZV4xLnJbkA/d4l7R5rkuNR/mYnmIOsoyWiZxBXkEu1aqB2qxPJioC18bPjRwW5V1sT2QMw94LXVtb17Fp6qADaO5KrATLu2l0hDBIZmGy26Bf5LltWHPNjLWnw4m0IXjtuOY+HWLnbeVic/V4qHNvl1yTvpO23GGBawmyvQxejKY5c+dni0qq65X6+IVwwHqA1totHzG2DqTyWt0wokErM4jWCjfFwHD2x+nsRO/t2xG4Nch6tSjZfRmhybayEDNVjU3ALClr89Z1riLLqavnOBbVCqOJNjIoEEBm5cbGajIsLmeosMmuhHPTR+j0UQbGain3ZNhR2PdGICjfcwltXmAy37KWZubSYiys4MSnYBn65rYu+rrOm/amTuMcLmtmENl7LwJLYb9uGPpkUNmzLra+OYqX73nVXRGbmSgbGBuOCEfYNs7iiEdb7Stm3brtO9xHtaqv/WhMBZkWIKAjTzoJHwgc7Vf8aYlPk4yFDfOurIAlg+wljouLLJAZF8kPuXDnFXM2OsYC4bYyhIpl+lD/DLwQ3/iAIJrGa3gIbka9znKKuovy2iuNuC0m3j4iNzP6Yo+vwouXHdl38R+lcuk8g1sZ7dRLJhktW81vDrnN+k7bceZF7BOJ9HFRs8MJtaHgs5pfJmxA9pKqhsDSMfbXZyoX8AmCzLUIRwib+rkg06CBzIWHeYDqNdeooEGfydE8fBao01FHrq9KGnSjQxsD3MunxktoysYEgw906JOBUJ+O36cSrGNFcS6tCLiGamLSsOyE6IaZxqJ7Dqvq1aXZ8TOk0p02oIdIvpstZttI4NHdbpCwCr7mYEGy6SzxAK2ER7W4FIn+xTpO23HELBdTI5lJz4EbKrCadnti7bl2Vc6XtjEJVBwHtxYLg7oN0RClMMWy2WLaL7Sd9qOIWDRyS6fiIKAXT7swfuWYS8dLzrGaAcFPIBHyzjAEXVv6CBvP68iw0V/ZQRHxLZl5YNPjvlk6TttxxCwIE2MNC1rsBCwy4c9eN8y7KXjbVnbgn1bZl/YNCsivNpY2gRjl9GmWt6mpO+0HUPAgpQtJyUcflYcPsrZDK5Kx9uM9JAGeAkOLJUD5gRR22TUpaaN+5rNS+k7bccQsBCwELDgADiQIgek4222g0d6EA3gADjQqRyQvtN2DAGbYsfVqaRCveAwwYHkHJCOF7glxw1YAStwoLs5IH2n7RgCFgIW0TdwABxIkQPS8aJD7u4OGfaH/cGB5ByQvtN2DAGbYscFoiYnKrACVp3KAel4O7WOqBfaLzgADjSbA9J32o4hYCFgEX0DB8CBFDkgHW+zHTzSg2gAB8CBTuWA9J22YwjYFDuuTiUV6gWHCQ4k54B0vMAtOW7ACliBA93NAek7bccQsBCwiL6BA+BAihyQjhcdcnd3yLA/7A8OJOeA9J22YwjYFDsuEDU5UYEVsOpUDkjH26l1RL3QfsEBcKDZHJC+03YMAQsBi+gbOAAOpMgB6Xib7eCRHkQDOAAOdCoHpO+0HUPApthxdSqpUC84THAgOQek4wVuyXEDVsAKHOhuDkjfaTuGgIWARfQNHAAHUuSAdLzokLu7Q4b9YX9wIDkHpO+0HUPApthxgajJiQqsgFWnckA63k6tI+qF9gsOgAPN5oD0nbZjCFgIWETfwAFwIEUOSMfbbAeP9CAawAFwoFM5IH2n7RgCNsWOq1NJhXrBYYIDyTkgHS9wS44bsAJW4EB3c0D6TtsxBCwELKJv4AA4kCIHpONFh9zdHTLsD/uDA8k5IH2n7bguAWtLAOeAABAAAkAACAABIAAEgEArEYCAbSXayAsIAAEgAASAABAAAkCgYQQgYBuGEAkAASAABIAAEAACQAAItBIBCNhWoo28gAAQAAJAAAgAASAABBpGoC4Bi8HHyQcfAytgBQ6AA+AAOAAOgAPgwNI4UEvhQsCmOPsYpF0aaYEbcAMHwAFwABwAB7qbAxCwEKhYIgkcAAfAAXAAHAAHwIFMcQACFoTNFGHxxN3dT9ywP+wPDoAD4AA4oDhQ6w9DCCBwIXDBAXAAHAAHwAFwABxoKw5AwIKQbUVIPFnjyRocAAfAAXAAHAAHanEAAhYCFgIWHAAH/l97d8zb1pUmYHj+iQyokaDaTZpdwBAQB0iZYhYykFTpBiBG1ZQW4iZVaMxgms2K8HZjW55mMI7SLSZ0FcByimAga4oIspw/8S2uxEsdUtciJfvOPYd8FhiYS1EUdc4j8v1urigGGGCAAQaKMiBggS0K7KyJzMdN7QwwwAADDCy+AQErYAUsAwwwwAADDDBQlAEBC2xRYE3Viz9V22N7zAADDDAwy4CAFbAClgEGGGCAAQYYKMqAgAW2KLCzJjIfN7UzwAADDDCw+AYErIAVsAwwwAADDDDAQFEGBCywRYE1VS/+VG2P7TEDDDDAwCwDAlbAClgGGGCAAQYYYKAoAwIW2KLAzprIfNzUzgADDDDAwOIbELACVsAywAADDDDAAANFGRCwwBYF1lS9+FO1PbbHDDDAAAOzDAhYAStgGWCAAQYYYICBogwIWGCLAjtrIvNxUzsDDDDAAAOLb0DAClgBywADDDDAAAMMFGVAwAJbFFhT9eJP1fbYHjPAAAMMzDIgYAWsgGWAAQYYYIABBooyIGCBLQrsrInMx03tDDDAAAMMLL4BAStgBSwDDDDAAAMMMFCUAQELbFFgTdWLP1XbY3vMAAMMMDDLgIAVsAKWAQYYYIABBhgoyoCABbYosLMmMh83tTPAAAMMMLD4BgSsgBWwDDDAAAMMMMBAUQYELLBFgTVVL/5UbY/tMQMMMMDALAMCVsAKWAYYYIABBhhgoCgDAhbYosDOmsh83NTOAAMMMMDA4hsQsAJWwDLAAAMMMMAAA0UZELDAFgXWVL34U7U9tscMMMAAA7MMCFgBK2AZYIABBhhggIGiDAhYYIsCO2si83FTOwMMMMAAA4tvQMAKWAHLAAMMMMAAAwwUZUDAAlsUWFP14k/V9tgeM8AAAwzMMiBgBayAZYABBhhggAEGijIgYIEtCuysiczHTe0MMMAAAwwsvgEBK2AFLAMMMMAAAwwwUJQBAQtsUWBN1Ys/Vdtje8wAAwwwMMuAgBWwApYBBhhggAEGGCjKgIAFtiiwsyYyHze1M8AAAwwwsPgGBKyAFbAMLK2Bk1ffx6N+LzZXbsXq2f/WY7P3TezuvYijVl38EsP+Z7G68ln0h78s7fqLjMWPDHtsj9syIGBbfZECty247pet9zNwHAd7f0jCtQ7Y+t/12Pz9kzh409Y6C9j327+29sX92hcGSjEgYAWsoz8MLJmB0zjaf3Aer2tbsTP4PgnV4zjYH8TO1u1YXVmPzfvftXwk1otlKS+WHierDORlQMCKlyWLl7x+AD0hdrAfb36M3c9vx+ral7H78rjZf32b9D/xHz6L3tqt2Og9iZfDQfTurJ+ddrCxtRO7+z/FycRzyWkcDZ9Fv3c3OTXhz7H/qv567zgCe/QiHt/fio36lIY7vehPnM4w+ry17Xj8w9/jj+P7vx337v8lhkenU9/P6xjuPRw/1tWVu9H743dJsI/Wf+bX7WCfJtbT1/dcwQADkwYErCfJqRe8SSB+YKzHohk4GT6MT1bW45P+cCo6J/f60u3qgN36XfxuFK/n581Wpx18Gjv7h+OfpZOXg/hirT4dIfn3zoPYP4vMywF78upJbF+63+pz0yPBdcD+Z2z+x3lAXzyGKq6fxeH4Oe11/KP/xUUM11Fc3V96esQ41pPHeXbbj6K39/P4e1o0B76fSe/Ww3qUZkDAjp/s4S0Nr8fL7PUNnMbh3nZsrMwRZ2+G0f94/SIKRwF7FpS9weho53EcPP867lVHZj8fxMuzc2Z/jqe9j+LsaOdgeH4Kwpuf4vlX1ZHV+utOB+xh7N//NFZXbse9r/42OkJaHcWtj/TWv+xVf96t2Nj6Op6fHdFNbre2HU8Pz4/Cngd4ertf4/TS4/g16lBPT5eoY3oyiHm7vjdrZs0YaMuAgBWwjrAwsEQG6gCsg/CKF5dRwK5+/DCGVZjWATs+ilp/7tR91rerP6/R19TnTH+t5HPqwDw/Yjz1eePb1dFcf1+j2yVBO34RmQrzOnRXq9MVBoN4dOl0iPr79O94Dcfrbk2sCQNdGRCwnoiWKF480XT1RJPP133/I7CXj0pO3mcdhJdvl/qbCtH69ISJUwBGt5/42NTnjZ+/pq+vg3b6tIDk/x8Hdn30N/lYdST4/iA5Zzd97C7n49le2IvlNSBgxy8Ay4vAE4C9XyYDk0c03733l243EZLp59UBe370s7yArb6X6pe9BskvnY1i9tLR5vT7dnmZfm58r7znZkDAClhHYBlYLgP1Ly3d8F0IxqcUjN1M/ef6Tk4hmD4CO/WYxo91nhfh6pzav8a3Z++GUJ+zO8/nuU1uL/AeD5OLbEDAXuuJ3Q/DIv8w+N6WxfcN3we2DtOJX7R6HcPB9tl7yl6cMlD/5/u70at/ievtxR9OOL/ddHDW/xl/3l/iqs91rfds+v6SX87qpW/fVf/SWf3OBvXR4/TrVvdZv4OBgPW8UBvzLwt5GRCwAna5jr7Zb/t9ZuAiKNO3obq4XP1J2fqdBkZP2vUpBL/div+afousqaO573wbrfHtGoLzOm+jlb4/7dn3c/n+Tt/WUZye2zq6PH4c1TsTjN4Xd/w2Wxe3v3hnhbxeuISE/WCAAQEraAQNA0tr4OTV9/Go30v+pGwVrt/E7sQfD5gK2Ik/ZFDd/mE8Hb6eWsOmP2SQ3q4pOH+N6vHszvOHDOYK2OpxT/8hg3f8ctb0HzKo/uBB/1nDH0bwoimcGGAgDwMCVrxMvfDmAdMThH3IzkB9BLbpnQI8j3geYYABBv6tBgQscP9WcNlFif23//MaELCszGvF7VhhoHUDAhay1pGJVkdTF8KAgPVc4fWCAQayMSBgYcwG40JEDk+L60nALu7e+rm1twwUZ0DAQlscWqHriC4DDDDAAAPLbUDAClgBywADDDDAAAMMFGVAwAJbFFgT93JP3Pbf/jPAAAMMVAZm/d9vZt0g/ThUUDHAAAMMMMAAAwy0bSDtz6bLAtYRWkdoGWCAAQYYYICBrAw0RWt6nYAFNiuwbU907t9RAwYYYIABBvI3kMZq02UBK2AFLAMMMMAAAwwwkJWBpmhNrxOwwGYF1lSc/1Rsj+wRAwwwwEDbBtJYbbosYAWsgGWAAQYYYIABBrIy0BSt6XUCFtiswLY90bl/Rw0YYIABBhjI30Aaq02XBayAFbAMMMAAAwwwwEBWBpqiNb1OwAKbFVhTcf5TsT2yRwwwwAADbRtIY7XpsoAVsAKWAQYYYIABBhjIykBTtKbXCVhgswLb9kTn/h01YIABBhhgIH8Daaw2XRawAlbAMsAAAwwwwAADWRloitb0OgELbFZgTcX5T8X2yB4xwAADDLRtII3VpssCVsAKWAYYYIABBhhgICsDTdGaXidggc0KbNsTnft31IABBhhggIH8DaSx2nRZwApYAcsAAwwwwAADDGRloCla0+sELLBZgTUV5z8V2yN7xAADDDDQtoE0VpsuC1gBK2AZYIABBhhggIGsDDRFa3qdgAU2K7BtT3Tu31EDBhhggAEG8jeQxmrTZQErYAUsAwwwwAADDDCQlYGmaE2vE7DAZgXWVJz/VGyP7BEDDDDAQNsG0lhtuixgBayAZYABBhhggAEGsjLQFK3pdQIW2KzAtj3RuX9HDRhggAEGGMjfQBqrTZcFrIAVsAwwwAADDDDAQFYGmqI1vU7AApsVWFNx/lOxPbJHDDDAAANtG0hjtemygBWwApYBBhhggAEGGMjKQFO0ptcJWGCzAtv2ROf+HTVggAEGGGAgfwNprDZdFrACVsAywAADDDDAAANZGWiK1vQ6AQtsVmBNxflPxfbIHjHAAAMMtG0gjdWmywJWwApYBhhggAEGGGAgKwNN0ZpeJ2CBzQps2xOd+3fUgAEGGGCAgfwNpLHadFnAClgBywADDDDAAAMMZGWgKVrT6wQssFmBNRXnPxXbI3vEAAMMMNC2gTRWmy4LWAErYBlggAEGGGCAgawMNEVrep2ABTYrsG1PdO7fUQMGGGCAAQbyN5DGatNlAStgBSwDDDDAAAMMMJCVgaZoTa8TsMBmBdZUnP9UbI/sEQMMMMBA2wbSWG26LGAFrIBlgAEGGGCAAQayMtAUrel1AhbYrMC2PdG5f0cNGGCAAQYYyN9AGqtNlwWsgBWwDDDAAAMMMMBAVgaaojW9TsACmxVYU3H+U7E9skcMMMAAA20bSGO16bKAFbAClgEGGGCAAQYYyMpAU7Sm110rYNNPdNkKWAErYAWsgBWwAlbACnSxAgK2i1X3Na2AFbACVsAKWAErYAVuvAIC9sZL5xOtgBWwAlbAClgBK2AFulgBAdvFqvuaVsAKWAErYAWsgBWwAjdegWsFbNu/ceb+/VYjAwwwwAADDDDAwKyyFbB+6zCr3zr0pOVJiwEGGFjQw24AAApCSURBVGCAAQYErEAVqAwwwAADDDDAQFEGBCywRYE1dZu6GWCAAQYYYEDAClgBywADDDDAAAMMFGVAwAJbFFhTt6mbAQYYYIABBgSsgBWwDDDAAAMMMMBAUQYELLBFgTV1m7oZYIABBhhgQMAKWAHLAAMMMMAAAwwUZUDAAlsUWFO3qZsBBhhggAEGBKyAFbAMMMAAAwwwwEBRBgQssEWBNXWbuhlggAEGGGBAwApYAcsAAwwwwAADDBRlQMACWxRYU7epmwEGGGCAAQYErIAVsAwwwAADDDDAQFEGBCywRYE1dZu6GWCAAQYYYEDAClgBywADDDDAAAMMFGVAwAJbFFhTt6mbAQYYYIABBgSsgBWwDDDAAAMMMMBAUQYELLBFgTV1m7oZYIABBhhgQMAKWAHLAAMMMMAAAwwUZUDAAlsUWFO3qZsBBhhggAEGBKyAFbAMMMAAAwwwwEBRBgQssEWBNXWbuhlggAEGGGBAwApYAcsAAwwwwAADDBRlQMACWxRYU7epmwEGGGCAAQYErIAVsAwwwAADDDDAQFEGBCywRYE1dZu6GWCAAQYYYEDAClgBywADDDDAAAMMFGVAwAJbFFhTt6mbAQYYYIABBgSsgBWwDDDAAAMMMMBAUQYELLBFgTV1m7oZYIABBhhgQMAKWAHLAAMMMMAAAwwUZUDAAlsUWFO3qZsBBhhggAEGBKyAFbAMMMAAAwwwwEBRBgQssEWBNXWbuhlggAEGGGBAwApYAcsAAwwwwAADDBRlQMACWxRYU7epmwEGGGCAAQYErIAVsAwwkJGBk6N/xb8yejxCQSgwwECOBgSsFwrxwgADcxk4jcO97dhYuRWrDf/b2NqJb/dexNFc99X0gvg6hoPt2Pz4YQzfNH3cdTm+iHpMXDLQjQEBe+MXm242zA+KdWegKwNXB+x51K7H5u+fxMFNAvTNMPofr8eqgDVQeV1igIGZBgQsJDORCKaugsnXzcteHbAfRW/v56mfm9M4Gv4ldrZux+pK08fn2EsBO7Wmc6yZ529rxsDSGhCw8C8t/rziyIt1/vtxVcCO9u/ou9i503AU9ehFPP2fnbi3dnH6wcbWg3g8fH3+83f4LHrJxyYjOI3j6vPXY7P3MJ7Wn1s/hx29iMf3ty5OcbjTi/57ndLAZP4m7ZE9Wl4DArZ+8vevkGWAgSsNzBGwb3+JYf+zWF35LPrDX87X882Psft5dWT2Il7Hl9e+jN2Xx3H6zoA9joO9P8Rm0+eufBo7+4czvsYNjwZfuQ7L+4Ipluw9A/kYELCeqEULAwzMZWCegL18m5Phw/hk5Xbc++pvybmxx/Fy8GVsrKzHJ/1hnFRfv+kUgvqI7tpWPHj+0/nt3o5+2auK2tH5sudfYz027383/iWyk1dPYvvOemz0nsXhXN9fPi9MIsFeMMDALAMC1hO7eGGAgbkMXI7Ty0+wV93mdQz3/jd2B4PYHZ9OcHXA1mE6jtzx45w80nt+u1uxWp02MBjEo/06dr0IXt4ja2JNGFgEAwJ2/IIA9CKA9j1w3J6Bq+K0Xvf6NskpBOkR00unAlwVsPV9NZ0GMP2xw9i//+nUaQq34979Qey/OjageJ5ngIGFMyBgoV441O0FTB0p/l3ONZ6OxiYHoyOja9vx9PA0Tt+extH+g/NzWEdHR6sjsI/2D+KfZ+8p+6ECtnos1RHeQfR7dydD9s6D2D+qHkvT43WddWGAgTINCFhP6l7YGGBgLgNzBOzonNWL805/jqe9j2J1HLT1C0V9X1cF7K8x7ykEl1+Aq3cu+Gt8e/auBE1HcOvH4d/La2dNrAkDJRgQsHO9cMFcAmaPkdN2DdTR2RSEx3GwPxi9D2zy7gDjdyW4G9t7Bxe/hPX4wegtta4O2NO5fomrflzTvyj2Ov7R/yI2bvq+tJ4bDXYMMJCxAQGb8ea0+2IsdqwvA9czUIdiw9thjc9tvR33+v83fieAiVMIxreZ/Pzx0dr6XQiq29Vvr/X2fd9G61ZsfD6Ilzf5y2CeG8ULAwxkbEDAZrw513txFSPWi4F2DVwVsNUfF/gmdhv/cMBxHDz/OvkjBtUvV/13PP3h71N/OvY0jn740+h26VHe9OjuNf6Qwcrd6PWfxdD5ryLE6xwDC2hAwC7gprb7Ii6SrC8DDDDAAAMMdGtAwApYkykDDDDAAAMMMFCUAQELbFFgTbzdTrzW3/ozwAADDORgQMAKWAHLAAMMMMAAAwwUZUDAAlsU2BymPo/B0QcGGGCAAQa6NSBgBayAZYABBhhggAEGijIgYIEtCqyJt9uJ1/pbfwYYYICBHAwIWAErYBlggAEGGGCAgaIMCFhgiwKbw9TnMTj6wAADDDDAQLcGBKyAFbAMMMAAAwwwwEBRBgQssEWBNfF2O/Faf+vPAAMMMJCDAQErYAUsAwwwwAADDDBQlAEBC2xRYHOY+jwGRx8YYIABBhjo1oCAFbAClgEGGGCAAQYYKMqAgAW2KLAm3m4nXutv/RlggAEGcjAgYAWsgGWAAQYYYIABBooyIGCBLQpsDlOfx+DoAwMMMMAAA90aELACVsAywAADDDDAAANFGRCwwBYF1sTb7cRr/a0/AwwwwEAOBgSsgBWwDDDAAAMMMMBAUQYELLBFgc1h6vMYHH1ggAEGGGCgWwMCVsAKWAYYYIABBhhgoCgDAhbYosCaeLudeK2/9WeAAQYYyMGAgBWwApYBBhhggAEGGCjKgIAFtiiwOUx9HoOjDwwwwAADDHRrQMAKWAHLAAMMMMAAAwwUZUDAAlsUWBNvtxOv9bf+DDDAAAM5GBCwAlbAMsAAAwwwwAADRRkQsMAWBTaHqc9jcPSBAQYYYICBbg0IWAErYBlggAEGGGCAgaIMCFhgiwJr4u124rX+1p8BBhhgIAcDAlbAClgGGGCAAQYYYKAoAwIW2KLA5jD1eQyOPjDAAAMMMNCtAQErYAUsAwwwwAADDDBQlAEBC2xRYE283U681t/6M8AAAwzkYEDAClgBywADDDDAAAMMFGVAwAJbFNgcpj6PwdEHBhhggAEGujUgYAWsgGWAAQYYYIABBooyIGCBLQqsibfbidf6W38GGGCAgRwMCFgBK2AZYIABBhhggIGiDAhYYIsCm8PU5zE4+sAAAwwwwEC3BgSsgBWwDDDAAAMMMMBAUQYELLBFgTXxdjvxWn/rzwADDDCQgwEBK2AFLAMMMMAAAwwwUJQBAQtsUWBzmPo8BkcfGGCAAQYY6NaAgBWwApYBBhhggAEGGCjKgIAFtiiwJt5uJ17rb/0ZYIABBnIwIGAFrIBlgAEGGGCAAQaKMiBggS0KbA5Tn8fg6AMDDDDAAAPdGvigATvrznzcClgBK2AFrIAVsAJWwAq0vQK/afsLuH8rYAWsgBWwAlbAClgBK/AhV0DAfsjVdF9WwApYAStgBayAFbACra+AgG19iX0BK2AFrIAVsAJWwApYgQ+5AgL2Q66m+7ICVsAKWAErYAWsgBVofQX+Hw9aGD4a+vbKAAAAAElFTkSuQmCC;" vertex="1" parent="1">
          <mxGeometry x="-696" y="832" width="416" height="327.12" as="geometry" />
        </mxCell>
      </root>
    </mxGraphModel>
  </diagram>
</mxfile>
